<svg width="400" height="150" viewBox="0 0 400 150" fill="none" xmlns="http://www.w3.org/2000/svg">
<path d="M10 0.50012L325 0.500065C366.145 0.500058 399.5 33.8548 399.5 75.0001C399.5 116.145 366.145 149.5 325 149.5L10 149.5C4.75331 149.5 0.500025 145.247 0.500024 140L0.500002 10.0001C0.500001 4.75342 4.7533 0.500121 10 0.50012Z" stroke="#999999"/>
<path d="M10 0.499998L275 0.499952C316.145 0.499945 349.5 33.8547 349.5 74.9999C349.5 116.145 316.145 149.5 275 149.5L10 149.5C4.75332 149.5 0.500025 145.247 0.500024 140L0.500002 10C0.500001 4.75329 4.7533 0.499999 10 0.499998Z" stroke="black"/>
<path d="M32.375 111.182H34.3409L35.6932 114.477H35.7614L37.1136 111.182H39.0795V117H37.5341V113.636H37.4886L36.1932 116.955H35.2614L33.9659 113.614H33.9205V117H32.375V111.182ZM41.0668 117.068C40.7884 117.068 40.5421 117.023 40.3281 116.932C40.116 116.839 39.9493 116.699 39.8281 116.511C39.7069 116.324 39.6463 116.085 39.6463 115.795C39.6463 115.557 39.687 115.353 39.7685 115.185C39.8499 115.014 39.9635 114.875 40.1094 114.767C40.2552 114.659 40.4247 114.577 40.6179 114.52C40.813 114.463 41.0232 114.426 41.2486 114.409C41.4929 114.39 41.6889 114.367 41.8366 114.341C41.9863 114.312 42.0942 114.274 42.1605 114.224C42.2268 114.173 42.2599 114.106 42.2599 114.023V114.011C42.2599 113.898 42.2164 113.811 42.1293 113.75C42.0421 113.689 41.9304 113.659 41.794 113.659C41.6444 113.659 41.5223 113.692 41.4276 113.759C41.3348 113.823 41.2789 113.922 41.2599 114.057H39.8168C39.8357 113.792 39.92 113.547 40.0696 113.324C40.2211 113.098 40.4418 112.919 40.7315 112.784C41.0213 112.648 41.383 112.58 41.8168 112.58C42.1293 112.58 42.4096 112.616 42.6577 112.69C42.9058 112.762 43.117 112.864 43.2912 112.994C43.4654 113.123 43.598 113.275 43.6889 113.449C43.7817 113.621 43.8281 113.809 43.8281 114.011V117H42.3622V116.386H42.3281C42.241 116.549 42.1349 116.681 42.0099 116.781C41.8868 116.882 41.7457 116.955 41.5866 117C41.4295 117.045 41.2562 117.068 41.0668 117.068ZM41.5781 116.08C41.6974 116.08 41.8092 116.055 41.9134 116.006C42.0194 115.956 42.1056 115.885 42.1719 115.793C42.2382 115.7 42.2713 115.587 42.2713 115.455V115.091C42.2296 115.108 42.1851 115.124 42.1378 115.139C42.0923 115.154 42.0431 115.169 41.9901 115.182C41.9389 115.195 41.884 115.207 41.8253 115.219C41.7685 115.23 41.7088 115.241 41.6463 115.25C41.5251 115.269 41.4257 115.3 41.348 115.344C41.2723 115.385 41.2154 115.438 41.1776 115.5C41.1416 115.561 41.1236 115.629 41.1236 115.705C41.1236 115.826 41.1662 115.919 41.2514 115.983C41.3366 116.047 41.4455 116.08 41.5781 116.08ZM47.7592 112.636V113.807H46.0888V117H44.5774V112.636H47.7592ZM49.4418 117.068C49.1634 117.068 48.9171 117.023 48.7031 116.932C48.491 116.839 48.3243 116.699 48.2031 116.511C48.0819 116.324 48.0213 116.085 48.0213 115.795C48.0213 115.557 48.062 115.353 48.1435 115.185C48.2249 115.014 48.3385 114.875 48.4844 114.767C48.6302 114.659 48.7997 114.577 48.9929 114.52C49.188 114.463 49.3982 114.426 49.6236 114.409C49.8679 114.39 50.0639 114.367 50.2116 114.341C50.3613 114.312 50.4692 114.274 50.5355 114.224C50.6018 114.173 50.6349 114.106 50.6349 114.023V114.011C50.6349 113.898 50.5914 113.811 50.5043 113.75C50.4171 113.689 50.3054 113.659 50.169 113.659C50.0194 113.659 49.8973 113.692 49.8026 113.759C49.7098 113.823 49.6539 113.922 49.6349 114.057H48.1918C48.2107 113.792 48.295 113.547 48.4446 113.324C48.5961 113.098 48.8168 112.919 49.1065 112.784C49.3963 112.648 49.758 112.58 50.1918 112.58C50.5043 112.58 50.7846 112.616 51.0327 112.69C51.2808 112.762 51.492 112.864 51.6662 112.994C51.8404 113.123 51.973 113.275 52.0639 113.449C52.1567 113.621 52.2031 113.809 52.2031 114.011V117H50.7372V116.386H50.7031C50.616 116.549 50.5099 116.681 50.3849 116.781C50.2618 116.882 50.1207 116.955 49.9616 117C49.8045 117.045 49.6312 117.068 49.4418 117.068ZM49.9531 116.08C50.0724 116.08 50.1842 116.055 50.2884 116.006C50.3944 115.956 50.4806 115.885 50.5469 115.793C50.6132 115.7 50.6463 115.587 50.6463 115.455V115.091C50.6046 115.108 50.5601 115.124 50.5128 115.139C50.4673 115.154 50.4181 115.169 50.3651 115.182C50.3139 115.195 50.259 115.207 50.2003 115.219C50.1435 115.23 50.0838 115.241 50.0213 115.25C49.9001 115.269 49.8007 115.3 49.723 115.344C49.6473 115.385 49.5904 115.438 49.5526 115.5C49.5166 115.561 49.4986 115.629 49.4986 115.705C49.4986 115.826 49.5412 115.919 49.6264 115.983C49.7116 116.047 49.8205 116.08 49.9531 116.08ZM52.7592 115.682H54.2365C54.2365 115.792 54.2839 115.882 54.3786 115.952C54.4751 116.022 54.5982 116.057 54.7479 116.057C54.8975 116.057 55.0196 116.018 55.1143 115.94C55.2109 115.861 55.2592 115.759 55.2592 115.636C55.2592 115.559 55.2393 115.491 55.1996 115.432C55.1598 115.371 55.1049 115.324 55.0348 115.29C54.9647 115.256 54.8842 115.239 54.7933 115.239H54.2479V114.318H54.7933C54.9278 114.318 55.0367 114.286 55.12 114.222C55.2053 114.157 55.2479 114.076 55.2479 113.977C55.2479 113.864 55.2062 113.771 55.1229 113.699C55.0395 113.627 54.9335 113.591 54.8047 113.591C54.6759 113.591 54.5698 113.62 54.4865 113.679C54.4032 113.738 54.3615 113.814 54.3615 113.909H52.8842C52.8842 113.629 52.9676 113.39 53.1342 113.193C53.3009 112.994 53.5244 112.843 53.8047 112.739C54.085 112.633 54.3956 112.58 54.7365 112.58C55.1267 112.58 55.4619 112.627 55.7422 112.722C56.0225 112.816 56.2375 112.955 56.3871 113.139C56.5367 113.323 56.6115 113.549 56.6115 113.818C56.6115 114.04 56.531 114.23 56.37 114.389C56.209 114.546 55.9714 114.659 55.657 114.727V114.773C55.8445 114.782 56.0187 114.827 56.1797 114.906C56.3426 114.986 56.4742 115.099 56.5746 115.247C56.675 115.395 56.7251 115.578 56.7251 115.795C56.7251 116.068 56.6399 116.3 56.4695 116.491C56.3009 116.683 56.0679 116.829 55.7706 116.929C55.4732 117.029 55.1323 117.08 54.7479 117.08C54.3729 117.08 54.0376 117.029 53.7422 116.929C53.4467 116.827 53.2119 116.672 53.0376 116.466C52.8634 116.258 52.7706 115.996 52.7592 115.682ZM58.8125 115L60.0284 112.636H61.5057V117H60.0284V114.625L58.8125 117H57.3352V112.636H58.8125V115ZM65.4176 114.216V115.386H63.2244V114.216H65.4176ZM63.7812 112.636V117H62.304V112.636H63.7812ZM66.3381 112.636V117H64.8722V112.636H66.3381Z" fill="black"/>
<path d="M49.7614 124.05C49.5495 124.05 49.3482 124.017 49.1577 123.95C48.9683 123.883 48.8002 123.777 48.6534 123.632C48.5066 123.488 48.3912 123.3 48.3072 123.068C48.2243 122.836 48.1835 122.555 48.1847 122.224C48.1858 121.93 48.2237 121.665 48.2983 121.429C48.3741 121.193 48.4812 120.993 48.6197 120.827C48.7594 120.661 48.9263 120.535 49.1204 120.447C49.3145 120.358 49.5305 120.314 49.7685 120.314C50.036 120.314 50.2715 120.365 50.4751 120.468C50.6787 120.571 50.8409 120.709 50.9616 120.882C51.0836 121.054 51.1546 121.243 51.1747 121.45H50.2017C50.1792 121.347 50.1271 121.272 50.0455 121.225C49.965 121.176 49.8726 121.152 49.7685 121.152C49.5613 121.152 49.4092 121.242 49.3121 121.422C49.2163 121.602 49.1671 121.839 49.1648 122.132H49.1861C49.2322 122.021 49.3021 121.926 49.3956 121.846C49.4891 121.767 49.598 121.706 49.7223 121.663C49.8466 121.621 49.978 121.599 50.1165 121.599C50.3366 121.599 50.529 121.649 50.6935 121.749C50.8593 121.848 50.9883 121.984 51.0806 122.157C51.1729 122.33 51.2185 122.527 51.2173 122.75C51.2185 123.01 51.157 123.238 51.0327 123.434C50.9096 123.629 50.7385 123.78 50.5195 123.888C50.3005 123.996 50.0478 124.05 49.7614 124.05ZM49.7543 123.304C49.8525 123.304 49.9395 123.281 50.0153 123.237C50.0922 123.192 50.152 123.13 50.1946 123.052C50.2384 122.974 50.2597 122.885 50.2585 122.786C50.2597 122.685 50.2384 122.596 50.1946 122.519C50.152 122.441 50.0922 122.379 50.0153 122.335C49.9395 122.29 49.8525 122.267 49.7543 122.267C49.6821 122.267 49.6152 122.28 49.5536 122.306C49.4933 122.331 49.4406 122.367 49.3956 122.414C49.3506 122.461 49.3151 122.516 49.2891 122.58C49.2642 122.642 49.2512 122.711 49.25 122.786C49.2512 122.885 49.2737 122.974 49.3175 123.052C49.3613 123.13 49.421 123.192 49.4968 123.237C49.5726 123.281 49.6584 123.304 49.7543 123.304Z" fill="black"/>
<path d="M91.375 111.182H93.3409L94.6932 114.477H94.7614L96.1136 111.182H98.0795V117H96.5341V113.636H96.4886L95.1932 116.955H94.2614L92.9659 113.614H92.9205V117H91.375V111.182ZM100.067 117.068C99.7884 117.068 99.5421 117.023 99.3281 116.932C99.116 116.839 98.9493 116.699 98.8281 116.511C98.7069 116.324 98.6463 116.085 98.6463 115.795C98.6463 115.557 98.687 115.353 98.7685 115.185C98.8499 115.014 98.9635 114.875 99.1094 114.767C99.2552 114.659 99.4247 114.577 99.6179 114.52C99.813 114.463 100.023 114.426 100.249 114.409C100.493 114.39 100.689 114.367 100.837 114.341C100.986 114.312 101.094 114.274 101.161 114.224C101.227 114.173 101.26 114.106 101.26 114.023V114.011C101.26 113.898 101.216 113.811 101.129 113.75C101.042 113.689 100.93 113.659 100.794 113.659C100.644 113.659 100.522 113.692 100.428 113.759C100.335 113.823 100.279 113.922 100.26 114.057H98.8168C98.8357 113.792 98.92 113.547 99.0696 113.324C99.2211 113.098 99.4418 112.919 99.7315 112.784C100.021 112.648 100.383 112.58 100.817 112.58C101.129 112.58 101.41 112.616 101.658 112.69C101.906 112.762 102.117 112.864 102.291 112.994C102.465 113.123 102.598 113.275 102.689 113.449C102.782 113.621 102.828 113.809 102.828 114.011V117H101.362V116.386H101.328C101.241 116.549 101.135 116.681 101.01 116.781C100.887 116.882 100.746 116.955 100.587 117C100.429 117.045 100.256 117.068 100.067 117.068ZM100.578 116.08C100.697 116.08 100.809 116.055 100.913 116.006C101.019 115.956 101.106 115.885 101.172 115.793C101.238 115.7 101.271 115.587 101.271 115.455V115.091C101.23 115.108 101.185 115.124 101.138 115.139C101.092 115.154 101.043 115.169 100.99 115.182C100.939 115.195 100.884 115.207 100.825 115.219C100.768 115.23 100.709 115.241 100.646 115.25C100.525 115.269 100.426 115.3 100.348 115.344C100.272 115.385 100.215 115.438 100.178 115.5C100.142 115.561 100.124 115.629 100.124 115.705C100.124 115.826 100.166 115.919 100.251 115.983C100.337 116.047 100.446 116.08 100.578 116.08ZM106.759 112.636V113.807H105.089V117H103.577V112.636H106.759ZM108.442 117.068C108.163 117.068 107.917 117.023 107.703 116.932C107.491 116.839 107.324 116.699 107.203 116.511C107.082 116.324 107.021 116.085 107.021 115.795C107.021 115.557 107.062 115.353 107.143 115.185C107.225 115.014 107.339 114.875 107.484 114.767C107.63 114.659 107.8 114.577 107.993 114.52C108.188 114.463 108.398 114.426 108.624 114.409C108.868 114.39 109.064 114.367 109.212 114.341C109.361 114.312 109.469 114.274 109.536 114.224C109.602 114.173 109.635 114.106 109.635 114.023V114.011C109.635 113.898 109.591 113.811 109.504 113.75C109.417 113.689 109.305 113.659 109.169 113.659C109.019 113.659 108.897 113.692 108.803 113.759C108.71 113.823 108.654 113.922 108.635 114.057H107.192C107.211 113.792 107.295 113.547 107.445 113.324C107.596 113.098 107.817 112.919 108.107 112.784C108.396 112.648 108.758 112.58 109.192 112.58C109.504 112.58 109.785 112.616 110.033 112.69C110.281 112.762 110.492 112.864 110.666 112.994C110.84 113.123 110.973 113.275 111.064 113.449C111.157 113.621 111.203 113.809 111.203 114.011V117H109.737V116.386H109.703C109.616 116.549 109.51 116.681 109.385 116.781C109.262 116.882 109.121 116.955 108.962 117C108.804 117.045 108.631 117.068 108.442 117.068ZM108.953 116.08C109.072 116.08 109.184 116.055 109.288 116.006C109.394 115.956 109.481 115.885 109.547 115.793C109.613 115.7 109.646 115.587 109.646 115.455V115.091C109.605 115.108 109.56 115.124 109.513 115.139C109.467 115.154 109.418 115.169 109.365 115.182C109.314 115.195 109.259 115.207 109.2 115.219C109.143 115.23 109.084 115.241 109.021 115.25C108.9 115.269 108.801 115.3 108.723 115.344C108.647 115.385 108.59 115.438 108.553 115.5C108.517 115.561 108.499 115.629 108.499 115.705C108.499 115.826 108.541 115.919 108.626 115.983C108.712 116.047 108.821 116.08 108.953 116.08ZM111.759 115.682H113.237C113.237 115.792 113.284 115.882 113.379 115.952C113.475 116.022 113.598 116.057 113.748 116.057C113.897 116.057 114.02 116.018 114.114 115.94C114.211 115.861 114.259 115.759 114.259 115.636C114.259 115.559 114.239 115.491 114.2 115.432C114.16 115.371 114.105 115.324 114.035 115.29C113.965 115.256 113.884 115.239 113.793 115.239H113.248V114.318H113.793C113.928 114.318 114.037 114.286 114.12 114.222C114.205 114.157 114.248 114.076 114.248 113.977C114.248 113.864 114.206 113.771 114.123 113.699C114.04 113.627 113.933 113.591 113.805 113.591C113.676 113.591 113.57 113.62 113.487 113.679C113.403 113.738 113.362 113.814 113.362 113.909H111.884C111.884 113.629 111.968 113.39 112.134 113.193C112.301 112.994 112.524 112.843 112.805 112.739C113.085 112.633 113.396 112.58 113.737 112.58C114.127 112.58 114.462 112.627 114.742 112.722C115.022 112.816 115.237 112.955 115.387 113.139C115.537 113.323 115.612 113.549 115.612 113.818C115.612 114.04 115.531 114.23 115.37 114.389C115.209 114.546 114.971 114.659 114.657 114.727V114.773C114.844 114.782 115.019 114.827 115.18 114.906C115.343 114.986 115.474 115.099 115.575 115.247C115.675 115.395 115.725 115.578 115.725 115.795C115.725 116.068 115.64 116.3 115.469 116.491C115.301 116.683 115.068 116.829 114.771 116.929C114.473 117.029 114.132 117.08 113.748 117.08C113.373 117.08 113.038 117.029 112.742 116.929C112.447 116.827 112.212 116.672 112.038 116.466C111.863 116.258 111.771 115.996 111.759 115.682ZM117.812 115L119.028 112.636H120.506V117H119.028V114.625L117.812 117H116.335V112.636H117.812V115ZM124.418 114.216V115.386H122.224V114.216H124.418ZM122.781 112.636V117H121.304V112.636H122.781ZM125.338 112.636V117H123.872V112.636H125.338Z" fill="black"/>
<path d="M107.405 124L108.832 121.173V121.152H107.156V120.364H109.855V121.152L108.42 124H107.405Z" fill="black"/>
<rect x="152" y="31.0007" width="13" height="6" fill="#B7FFEE"/>
<path d="M159.024 32.3643L159.024 36.0007L158.037 36.0007L158.037 33.2734L158.016 33.2734L157.22 33.7492L157.22 32.9112L158.115 32.3643L159.024 32.3643Z" fill="black"/>
<path d="M239 63H266.375H280.062M348.5 63H321.125H307.438H300.594" stroke="black"/>
<path d="M349 80H257M165 150V132.5V123.75M234 80H211H165V97.5V106.25" stroke="black"/>
<path d="M165 1V63H183.5H192.75M239 1V63H220.5H211.25" stroke="black"/>
<path d="M79 1V63H93.75H101.125M138 1V63H123.25H115.875" stroke="black"/>
<path d="M20 1V63H34.75H42.125M79 1V63H64.25H56.875" stroke="black"/>
<path d="M138 150V88H123.25H115.875M79 150V88H93.75H101.125" stroke="black"/>
<path d="M79 150L79 88H64.25H56.875M20 150L20 88H34.75H42.125" stroke="black"/>
<path d="M240.96 115L239.176 112.648H238.955V115H237.375V109.182H238.955V111.375H239.159L240.83 109.182H242.818L240.602 111.977L242.943 115H240.96ZM244.606 115.068C244.327 115.068 244.081 115.023 243.867 114.932C243.655 114.839 243.488 114.699 243.367 114.511C243.246 114.324 243.185 114.085 243.185 113.795C243.185 113.557 243.226 113.353 243.308 113.185C243.389 113.014 243.503 112.875 243.648 112.767C243.794 112.659 243.964 112.577 244.157 112.52C244.352 112.463 244.562 112.426 244.788 112.409C245.032 112.39 245.228 112.367 245.376 112.341C245.525 112.312 245.633 112.274 245.7 112.224C245.766 112.173 245.799 112.106 245.799 112.023V112.011C245.799 111.898 245.755 111.811 245.668 111.75C245.581 111.689 245.469 111.659 245.333 111.659C245.183 111.659 245.061 111.692 244.967 111.759C244.874 111.823 244.818 111.922 244.799 112.057H243.356C243.375 111.792 243.459 111.547 243.609 111.324C243.76 111.098 243.981 110.919 244.271 110.784C244.56 110.648 244.922 110.58 245.356 110.58C245.668 110.58 245.949 110.616 246.197 110.69C246.445 110.762 246.656 110.864 246.83 110.994C247.004 111.123 247.137 111.275 247.228 111.449C247.321 111.621 247.367 111.809 247.367 112.011V115H245.901V114.386H245.867C245.78 114.549 245.674 114.681 245.549 114.781C245.426 114.882 245.285 114.955 245.126 115C244.969 115.045 244.795 115.068 244.606 115.068ZM245.117 114.08C245.237 114.08 245.348 114.055 245.452 114.006C245.558 113.956 245.645 113.885 245.711 113.793C245.777 113.7 245.81 113.587 245.81 113.455V113.091C245.769 113.108 245.724 113.124 245.677 113.139C245.631 113.154 245.582 113.169 245.529 113.182C245.478 113.195 245.423 113.207 245.364 113.219C245.308 113.23 245.248 113.241 245.185 113.25C245.064 113.269 244.965 113.3 244.887 113.344C244.811 113.385 244.754 113.438 244.717 113.5C244.681 113.561 244.663 113.629 244.663 113.705C244.663 113.826 244.705 113.919 244.79 113.983C244.876 114.047 244.985 114.08 245.117 114.08ZM247.923 113.682H249.401C249.401 113.792 249.448 113.882 249.543 113.952C249.639 114.022 249.762 114.057 249.912 114.057C250.062 114.057 250.184 114.018 250.278 113.94C250.375 113.861 250.423 113.759 250.423 113.636C250.423 113.559 250.403 113.491 250.364 113.432C250.324 113.371 250.269 113.324 250.199 113.29C250.129 113.256 250.048 113.239 249.957 113.239H249.412V112.318H249.957C250.092 112.318 250.201 112.286 250.284 112.222C250.369 112.157 250.412 112.076 250.412 111.977C250.412 111.864 250.37 111.771 250.287 111.699C250.204 111.627 250.098 111.591 249.969 111.591C249.84 111.591 249.734 111.62 249.651 111.679C249.567 111.738 249.526 111.814 249.526 111.909H248.048C248.048 111.629 248.132 111.39 248.298 111.193C248.465 110.994 248.688 110.843 248.969 110.739C249.249 110.633 249.56 110.58 249.901 110.58C250.291 110.58 250.626 110.627 250.906 110.722C251.187 110.816 251.402 110.955 251.551 111.139C251.701 111.323 251.776 111.549 251.776 111.818C251.776 112.04 251.695 112.23 251.534 112.389C251.373 112.546 251.135 112.659 250.821 112.727V112.773C251.009 112.782 251.183 112.827 251.344 112.906C251.507 112.986 251.638 113.099 251.739 113.247C251.839 113.395 251.889 113.578 251.889 113.795C251.889 114.068 251.804 114.3 251.634 114.491C251.465 114.683 251.232 114.829 250.935 114.929C250.637 115.029 250.296 115.08 249.912 115.08C249.537 115.08 249.202 115.029 248.906 114.929C248.611 114.827 248.376 114.672 248.202 114.466C248.027 114.258 247.935 113.996 247.923 113.682ZM253.977 113L255.192 110.636H256.67V115H255.192V112.625L253.977 115H252.499V110.636H253.977V113ZM260.582 112.216V113.386H258.388V112.216H260.582ZM258.945 110.636V115H257.468V110.636H258.945ZM261.502 110.636V115H260.036V110.636H261.502ZM264.352 115.08C263.878 115.08 263.473 114.986 263.136 114.798C262.799 114.609 262.54 114.346 262.36 114.009C262.18 113.67 262.09 113.277 262.09 112.83C262.09 112.383 262.18 111.991 262.36 111.653C262.54 111.314 262.799 111.051 263.136 110.864C263.473 110.674 263.878 110.58 264.352 110.58C264.825 110.58 265.23 110.674 265.567 110.864C265.905 111.051 266.163 111.314 266.343 111.653C266.523 111.991 266.613 112.383 266.613 112.83C266.613 113.277 266.523 113.67 266.343 114.009C266.163 114.346 265.905 114.609 265.567 114.798C265.23 114.986 264.825 115.08 264.352 115.08ZM264.363 113.92C264.496 113.92 264.61 113.876 264.707 113.787C264.803 113.698 264.878 113.571 264.931 113.406C264.984 113.241 265.011 113.045 265.011 112.818C265.011 112.589 264.984 112.393 264.931 112.23C264.878 112.065 264.803 111.938 264.707 111.849C264.61 111.76 264.496 111.716 264.363 111.716C264.223 111.716 264.103 111.76 264.002 111.849C263.902 111.938 263.825 112.065 263.772 112.23C263.719 112.393 263.692 112.589 263.692 112.818C263.692 113.045 263.719 113.241 263.772 113.406C263.825 113.571 263.902 113.698 264.002 113.787C264.103 113.876 264.223 113.92 264.363 113.92Z" fill="black"/>
<path d="M251.825 122.099C251.495 122.098 251.21 122.022 250.969 121.87C250.729 121.719 250.544 121.5 250.414 121.215C250.283 120.93 250.219 120.588 250.22 120.189C250.221 119.789 250.286 119.449 250.415 119.17C250.546 118.89 250.73 118.678 250.969 118.532C251.21 118.387 251.495 118.314 251.825 118.314C252.156 118.314 252.441 118.387 252.681 118.534C252.921 118.68 253.107 118.892 253.237 119.172C253.367 119.451 253.432 119.79 253.43 120.189C253.43 120.59 253.365 120.933 253.235 121.219C253.105 121.504 252.92 121.722 252.679 121.874C252.44 122.024 252.156 122.099 251.825 122.099ZM251.825 121.297C251.996 121.297 252.135 121.208 252.244 121.031C252.354 120.852 252.409 120.571 252.408 120.189C252.408 119.939 252.383 119.735 252.333 119.576C252.283 119.418 252.215 119.301 252.127 119.225C252.04 119.148 251.939 119.109 251.825 119.109C251.655 119.109 251.516 119.196 251.408 119.369C251.3 119.541 251.245 119.815 251.243 120.189C251.242 120.443 251.266 120.653 251.316 120.817C251.365 120.981 251.434 121.102 251.522 121.18C251.61 121.258 251.712 121.297 251.825 121.297Z" fill="black"/>
<path d="M189.375 32V26.1818H193.466V27.4545H190.955V28.1364H191.545C192.034 28.1364 192.461 28.215 192.827 28.3722C193.194 28.5294 193.479 28.7509 193.682 29.0369C193.886 29.3229 193.989 29.6591 193.989 30.0455C193.989 30.4318 193.886 30.7718 193.682 31.0653C193.479 31.3589 193.194 31.5881 192.827 31.7528C192.461 31.9176 192.034 32 191.545 32H189.375ZM190.955 30.7614H191.545C191.735 30.7614 191.894 30.7301 192.023 30.6676C192.153 30.6051 192.252 30.5189 192.318 30.4091C192.386 30.2992 192.42 30.1742 192.42 30.0341C192.42 29.8352 192.346 29.6705 192.196 29.5398C192.046 29.4072 191.83 29.3409 191.545 29.3409H190.955V30.7614ZM195.524 33.6364C195.344 33.6364 195.173 33.6222 195.01 33.5938C194.847 33.5672 194.704 33.5303 194.581 33.483L194.922 32.3693C195.051 32.4148 195.168 32.4441 195.274 32.4574C195.382 32.4706 195.474 32.4631 195.55 32.4347C195.627 32.4063 195.683 32.3523 195.717 32.2727L195.751 32.1932L194.217 27.6364H195.854L196.558 30.6591H196.604L197.32 27.6364H198.967L197.376 32.3636C197.297 32.6042 197.181 32.8201 197.03 33.0114C196.88 33.2045 196.683 33.357 196.439 33.4688C196.195 33.5805 195.89 33.6364 195.524 33.6364ZM199.197 28.8068V27.6364H203.425V28.8068H202.038V32H200.561V28.8068H199.197ZM205.484 30L206.7 27.6364H208.178V32H206.7V29.625L205.484 32H204.007V27.6364H205.484V30ZM208.976 32V27.6364H210.544V29.1932H210.817L211.749 27.6364H213.544L212.146 29.8409L213.555 32H211.737L210.896 30.6477H210.544V32H208.976Z" fill="black"/>
<path d="M201.241 39V38.2898L202.598 37.1676C202.688 37.093 202.765 37.0232 202.829 36.9581C202.894 36.8918 202.944 36.8237 202.978 36.7539C203.013 36.6841 203.031 36.6065 203.031 36.5213C203.031 36.4278 203.011 36.3479 202.971 36.2816C202.932 36.2153 202.877 36.1644 202.808 36.1289C202.738 36.0922 202.657 36.0739 202.566 36.0739C202.475 36.0739 202.394 36.0922 202.325 36.1289C202.256 36.1656 202.203 36.2195 202.165 36.2905C202.127 36.3615 202.108 36.4479 202.108 36.5497H201.17C201.17 36.294 201.228 36.0739 201.343 35.8892C201.458 35.7045 201.62 35.5625 201.829 35.4631C202.039 35.3636 202.284 35.3139 202.566 35.3139C202.857 35.3139 203.109 35.3607 203.322 35.4542C203.537 35.5465 203.702 35.6767 203.818 35.8448C203.935 36.0129 203.994 36.21 203.994 36.4361C203.994 36.5758 203.965 36.7148 203.907 36.8533C203.849 36.9906 203.744 37.1428 203.594 37.3097C203.444 37.4766 203.23 37.6754 202.953 37.9062L202.612 38.1903V38.2116H204.033V39H201.241Z" fill="black"/>
<path d="M270.375 34V28.1818H272.886C273.318 28.1818 273.696 28.267 274.02 28.4375C274.344 28.608 274.596 28.8475 274.776 29.1562C274.955 29.465 275.045 29.8258 275.045 30.2386C275.045 30.6553 274.953 31.0161 274.767 31.321C274.583 31.6259 274.325 31.8608 273.991 32.0256C273.66 32.1903 273.273 32.2727 272.83 32.2727H271.33V31.0455H272.511C272.697 31.0455 272.855 31.0133 272.986 30.9489C273.118 30.8826 273.22 30.7888 273.29 30.6676C273.362 30.5464 273.398 30.4034 273.398 30.2386C273.398 30.072 273.362 29.9299 273.29 29.8125C273.22 29.6932 273.118 29.6023 272.986 29.5398C272.855 29.4754 272.697 29.4432 272.511 29.4432H271.955V34H270.375ZM277.645 34.0795C277.179 34.0795 276.777 33.9905 276.44 33.8125C276.105 33.6326 275.847 33.375 275.665 33.0398C275.485 32.7027 275.395 32.2992 275.395 31.8295C275.395 31.3788 275.486 30.9848 275.668 30.6477C275.849 30.3106 276.106 30.0483 276.438 29.8608C276.769 29.6733 277.16 29.5795 277.611 29.5795C277.94 29.5795 278.239 29.6307 278.506 29.733C278.773 29.8352 279.001 29.9839 279.19 30.179C279.38 30.3722 279.526 30.607 279.628 30.8835C279.73 31.16 279.781 31.4716 279.781 31.8182V32.1818H275.884V31.3182H278.338C278.336 31.1932 278.304 31.0833 278.241 30.9886C278.181 30.892 278.098 30.8172 277.994 30.7642C277.892 30.7093 277.776 30.6818 277.645 30.6818C277.518 30.6818 277.402 30.7093 277.295 30.7642C277.189 30.8172 277.104 30.8911 277.04 30.9858C276.977 31.0805 276.944 31.1913 276.94 31.3182V32.25C276.94 32.3902 276.97 32.5152 277.028 32.625C277.087 32.7348 277.171 32.821 277.281 32.8835C277.391 32.946 277.524 32.9773 277.679 32.9773C277.787 32.9773 277.885 32.9621 277.974 32.9318C278.065 32.9015 278.143 32.858 278.207 32.8011C278.272 32.7424 278.319 32.6723 278.349 32.5909H279.781C279.732 32.8939 279.616 33.1572 279.432 33.3807C279.248 33.6023 279.005 33.7746 278.702 33.8977C278.401 34.0189 278.048 34.0795 277.645 34.0795ZM282.523 34.0795C282.05 34.0795 281.645 33.9858 281.308 33.7983C280.97 33.6089 280.712 33.3456 280.532 33.0085C280.352 32.6695 280.262 32.2765 280.262 31.8295C280.262 31.3826 280.352 30.9905 280.532 30.6534C280.712 30.3144 280.97 30.0511 281.308 29.8636C281.645 29.6742 282.05 29.5795 282.523 29.5795C282.951 29.5795 283.322 29.6572 283.634 29.8125C283.949 29.9659 284.192 30.1837 284.364 30.4659C284.537 30.7462 284.624 31.0758 284.626 31.4545H283.171C283.15 31.2254 283.084 31.0511 282.972 30.9318C282.862 30.8106 282.72 30.75 282.546 30.75C282.41 30.75 282.29 30.7898 282.188 30.8693C282.086 30.947 282.006 31.0653 281.95 31.2244C281.893 31.3816 281.864 31.5795 281.864 31.8182C281.864 32.0568 281.893 32.2557 281.95 32.4148C282.006 32.572 282.086 32.6903 282.188 32.7699C282.29 32.8475 282.41 32.8864 282.546 32.8864C282.662 32.8864 282.764 32.8598 282.853 32.8068C282.942 32.7519 283.014 32.6723 283.069 32.5682C283.126 32.4621 283.16 32.3333 283.171 32.1818H284.626C284.62 32.5663 284.532 32.9015 284.362 33.1875C284.191 33.4716 283.95 33.6913 283.637 33.8466C283.326 34.0019 282.955 34.0795 282.523 34.0795ZM285.01 30.8068V29.6364H289.237V30.8068H287.851V34H286.374V30.8068H285.01ZM291.812 34.0795C291.339 34.0795 290.934 33.9858 290.597 33.7983C290.259 33.6089 290.001 33.3456 289.821 33.0085C289.641 32.6695 289.551 32.2765 289.551 31.8295C289.551 31.3826 289.641 30.9905 289.821 30.6534C290.001 30.3144 290.259 30.0511 290.597 29.8636C290.934 29.6742 291.339 29.5795 291.812 29.5795C292.286 29.5795 292.691 29.6742 293.028 29.8636C293.366 30.0511 293.624 30.3144 293.804 30.6534C293.984 30.9905 294.074 31.3826 294.074 31.8295C294.074 32.2765 293.984 32.6695 293.804 33.0085C293.624 33.3456 293.366 33.6089 293.028 33.7983C292.691 33.9858 292.286 34.0795 291.812 34.0795ZM291.824 32.9205C291.956 32.9205 292.071 32.8759 292.168 32.7869C292.264 32.6979 292.339 32.571 292.392 32.4062C292.445 32.2415 292.472 32.0455 292.472 31.8182C292.472 31.589 292.445 31.393 292.392 31.2301C292.339 31.0653 292.264 30.9384 292.168 30.8494C292.071 30.7604 291.956 30.7159 291.824 30.7159C291.684 30.7159 291.563 30.7604 291.463 30.8494C291.363 30.9384 291.286 31.0653 291.233 31.2301C291.18 31.393 291.153 31.589 291.153 31.8182C291.153 32.0455 291.18 32.2415 291.233 32.4062C291.286 32.571 291.363 32.6979 291.463 32.7869C291.563 32.8759 291.684 32.9205 291.824 32.9205ZM294.71 35.6364V29.6364H296.267V30.3977H296.301C296.358 30.25 296.441 30.1146 296.551 29.9915C296.661 29.8665 296.797 29.767 296.96 29.6932C297.123 29.6174 297.313 29.5795 297.528 29.5795C297.816 29.5795 298.09 29.6562 298.349 29.8097C298.611 29.9631 298.823 30.2045 298.986 30.5341C299.151 30.8636 299.233 31.2917 299.233 31.8182C299.233 32.322 299.154 32.7396 298.997 33.071C298.842 33.4025 298.634 33.6496 298.372 33.8125C298.113 33.9754 297.828 34.0568 297.517 34.0568C297.312 34.0568 297.13 34.0237 296.969 33.9574C296.81 33.8892 296.673 33.7973 296.56 33.6818C296.448 33.5644 296.362 33.4318 296.301 33.2841H296.278V35.6364H294.71ZM296.244 31.8182C296.244 32.0303 296.272 32.214 296.327 32.3693C296.384 32.5227 296.463 32.642 296.565 32.7273C296.67 32.8106 296.794 32.8523 296.938 32.8523C297.081 32.8523 297.204 32.8116 297.304 32.7301C297.406 32.6468 297.484 32.5284 297.537 32.375C297.592 32.2197 297.619 32.0341 297.619 31.8182C297.619 31.6023 297.592 31.4176 297.537 31.2642C297.484 31.1089 297.406 30.9905 297.304 30.9091C297.204 30.8258 297.081 30.7841 296.938 30.7841C296.794 30.7841 296.67 30.8258 296.565 30.9091C296.463 30.9905 296.384 31.1089 296.327 31.2642C296.272 31.4176 296.244 31.6023 296.244 31.8182ZM301.106 34.0682C300.827 34.0682 300.581 34.0227 300.367 33.9318C300.155 33.839 299.988 33.6989 299.867 33.5114C299.746 33.3239 299.685 33.0852 299.685 32.7955C299.685 32.5568 299.726 32.3532 299.808 32.1847C299.889 32.0142 300.003 31.875 300.148 31.767C300.294 31.6591 300.464 31.5767 300.657 31.5199C300.852 31.4631 301.062 31.4261 301.288 31.4091C301.532 31.3902 301.728 31.3674 301.876 31.3409C302.025 31.3125 302.133 31.2737 302.2 31.2244C302.266 31.1733 302.299 31.1061 302.299 31.0227V31.0114C302.299 30.8977 302.255 30.8106 302.168 30.75C302.081 30.6894 301.969 30.6591 301.833 30.6591C301.683 30.6591 301.561 30.6922 301.467 30.7585C301.374 30.8229 301.318 30.9223 301.299 31.0568H299.856C299.875 30.7917 299.959 30.5473 300.109 30.3239C300.26 30.0985 300.481 29.9186 300.771 29.7841C301.06 29.6477 301.422 29.5795 301.856 29.5795C302.168 29.5795 302.449 29.6165 302.697 29.6903C302.945 29.7623 303.156 29.8636 303.33 29.9943C303.504 30.1231 303.637 30.2746 303.728 30.4489C303.821 30.6212 303.867 30.8087 303.867 31.0114V34H302.401V33.3864H302.367C302.28 33.5492 302.174 33.6809 302.049 33.7812C301.926 33.8816 301.785 33.9545 301.626 34C301.469 34.0455 301.295 34.0682 301.106 34.0682ZM301.617 33.0795C301.737 33.0795 301.848 33.0549 301.952 33.0057C302.058 32.9564 302.145 32.8854 302.211 32.7926C302.277 32.6998 302.31 32.5871 302.31 32.4545V32.0909C302.269 32.108 302.224 32.1241 302.177 32.1392C302.131 32.1544 302.082 32.1686 302.029 32.1818C301.978 32.1951 301.923 32.2074 301.864 32.2188C301.808 32.2301 301.748 32.2405 301.685 32.25C301.564 32.2689 301.465 32.3002 301.387 32.3438C301.311 32.3854 301.254 32.4375 301.217 32.5C301.181 32.5606 301.163 32.6288 301.163 32.7045C301.163 32.8258 301.205 32.9186 301.29 32.983C301.376 33.0473 301.485 33.0795 301.617 33.0795ZM307.73 31.2159V32.3864H305.537V31.2159L307.73 31.2159ZM306.094 29.6364V34H304.616V29.6364H306.094ZM308.651 29.6364V34H307.185V29.6364H308.651Z" fill="black"/>
<path d="M289.662 41.0497C289.375 41.0497 289.121 41.0006 288.898 40.9023C288.677 40.8029 288.503 40.6662 288.376 40.4922C288.25 40.3182 288.186 40.1181 288.185 39.892H289.179C289.18 39.9619 289.201 40.0246 289.243 40.0803C289.286 40.1347 289.344 40.1773 289.417 40.2081C289.49 40.2389 289.574 40.2543 289.669 40.2543C289.76 40.2543 289.841 40.2383 289.911 40.2063C289.98 40.1732 290.035 40.1276 290.074 40.0696C290.113 40.0116 290.132 39.9453 290.131 39.8707C290.132 39.7973 290.109 39.7322 290.063 39.6754C290.018 39.6186 289.955 39.5742 289.873 39.5423C289.792 39.5103 289.697 39.4943 289.591 39.4943H289.222V38.8125H289.591C289.689 38.8125 289.776 38.7965 289.85 38.7646C289.926 38.7326 289.984 38.6882 290.026 38.6314C290.069 38.5746 290.089 38.5095 290.088 38.4361C290.089 38.3651 290.072 38.3023 290.037 38.2479C290.001 38.1934 289.951 38.1508 289.887 38.12C289.825 38.0893 289.752 38.0739 289.669 38.0739C289.579 38.0739 289.499 38.0898 289.428 38.1218C289.358 38.1538 289.303 38.1982 289.262 38.255C289.222 38.3118 289.201 38.3769 289.2 38.4503H288.256C288.257 38.2277 288.318 38.0312 288.439 37.8608C288.56 37.6903 288.727 37.5566 288.939 37.4595C289.151 37.3625 289.394 37.3139 289.669 37.3139C289.938 37.3139 290.175 37.3595 290.381 37.4506C290.588 37.5418 290.75 37.6673 290.866 37.8271C290.983 37.9857 291.041 38.1674 291.04 38.3722C291.042 38.5758 290.972 38.7427 290.83 38.8729C290.689 39.0031 290.511 39.08 290.294 39.1037V39.1321C290.588 39.1641 290.808 39.254 290.956 39.402C291.104 39.5488 291.177 39.7334 291.175 39.956C291.176 40.169 291.112 40.3578 290.983 40.5224C290.855 40.6869 290.677 40.8159 290.449 40.9094C290.221 41.003 289.959 41.0497 289.662 41.0497Z" fill="black"/>
<path d="M32.375 26.1818H34.3409L35.6932 29.4773H35.7614L37.1136 26.1818H39.0795V32H37.5341V28.6364H37.4886L36.1932 31.9545H35.2614L33.9659 28.6136H33.9205V32H32.375V26.1818ZM41.0668 32.0682C40.7884 32.0682 40.5421 32.0227 40.3281 31.9318C40.116 31.839 39.9493 31.6989 39.8281 31.5114C39.7069 31.3239 39.6463 31.0852 39.6463 30.7955C39.6463 30.5568 39.687 30.3532 39.7685 30.1847C39.8499 30.0142 39.9635 29.875 40.1094 29.767C40.2552 29.6591 40.4247 29.5767 40.6179 29.5199C40.813 29.4631 41.0232 29.4261 41.2486 29.4091C41.4929 29.3902 41.6889 29.3674 41.8366 29.3409C41.9863 29.3125 42.0942 29.2737 42.1605 29.2244C42.2268 29.1733 42.2599 29.1061 42.2599 29.0227V29.0114C42.2599 28.8977 42.2164 28.8106 42.1293 28.75C42.0421 28.6894 41.9304 28.6591 41.794 28.6591C41.6444 28.6591 41.5223 28.6922 41.4276 28.7585C41.3348 28.8229 41.2789 28.9223 41.2599 29.0568H39.8168C39.8357 28.7917 39.92 28.5473 40.0696 28.3239C40.2211 28.0985 40.4418 27.9186 40.7315 27.7841C41.0213 27.6477 41.383 27.5795 41.8168 27.5795C42.1293 27.5795 42.4096 27.6165 42.6577 27.6903C42.9058 27.7623 43.117 27.8636 43.2912 27.9943C43.4654 28.1231 43.598 28.2746 43.6889 28.4489C43.7817 28.6212 43.8281 28.8087 43.8281 29.0114V32H42.3622V31.3864H42.3281C42.241 31.5492 42.1349 31.6809 42.0099 31.7812C41.8868 31.8816 41.7457 31.9545 41.5866 32C41.4295 32.0455 41.2562 32.0682 41.0668 32.0682ZM41.5781 31.0795C41.6974 31.0795 41.8092 31.0549 41.9134 31.0057C42.0194 30.9564 42.1056 30.8854 42.1719 30.7926C42.2382 30.6998 42.2713 30.5871 42.2713 30.4545V30.0909C42.2296 30.108 42.1851 30.1241 42.1378 30.1392C42.0923 30.1544 42.0431 30.1686 41.9901 30.1818C41.9389 30.1951 41.884 30.2074 41.8253 30.2188C41.7685 30.2301 41.7088 30.2405 41.6463 30.25C41.5251 30.2689 41.4257 30.3002 41.348 30.3438C41.2723 30.3854 41.2154 30.4375 41.1776 30.5C41.1416 30.5606 41.1236 30.6288 41.1236 30.7045C41.1236 30.8258 41.1662 30.9186 41.2514 30.983C41.3366 31.0473 41.4455 31.0795 41.5781 31.0795ZM47.7592 27.6364V28.8068H46.0888V32H44.5774V27.6364H47.7592ZM49.4418 32.0682C49.1634 32.0682 48.9171 32.0227 48.7031 31.9318C48.491 31.839 48.3243 31.6989 48.2031 31.5114C48.0819 31.3239 48.0213 31.0852 48.0213 30.7955C48.0213 30.5568 48.062 30.3532 48.1435 30.1847C48.2249 30.0142 48.3385 29.875 48.4844 29.767C48.6302 29.6591 48.7997 29.5767 48.9929 29.5199C49.188 29.4631 49.3982 29.4261 49.6236 29.4091C49.8679 29.3902 50.0639 29.3674 50.2116 29.3409C50.3613 29.3125 50.4692 29.2737 50.5355 29.2244C50.6018 29.1733 50.6349 29.1061 50.6349 29.0227V29.0114C50.6349 28.8977 50.5914 28.8106 50.5043 28.75C50.4171 28.6894 50.3054 28.6591 50.169 28.6591C50.0194 28.6591 49.8973 28.6922 49.8026 28.7585C49.7098 28.8229 49.6539 28.9223 49.6349 29.0568H48.1918C48.2107 28.7917 48.295 28.5473 48.4446 28.3239C48.5961 28.0985 48.8168 27.9186 49.1065 27.7841C49.3963 27.6477 49.758 27.5795 50.1918 27.5795C50.5043 27.5795 50.7846 27.6165 51.0327 27.6903C51.2808 27.7623 51.492 27.8636 51.6662 27.9943C51.8404 28.1231 51.973 28.2746 52.0639 28.4489C52.1567 28.6212 52.2031 28.8087 52.2031 29.0114V32H50.7372V31.3864H50.7031C50.616 31.5492 50.5099 31.6809 50.3849 31.7812C50.2618 31.8816 50.1207 31.9545 49.9616 32C49.8045 32.0455 49.6312 32.0682 49.4418 32.0682ZM49.9531 31.0795C50.0724 31.0795 50.1842 31.0549 50.2884 31.0057C50.3944 30.9564 50.4806 30.8854 50.5469 30.7926C50.6132 30.6998 50.6463 30.5871 50.6463 30.4545V30.0909C50.6046 30.108 50.5601 30.1241 50.5128 30.1392C50.4673 30.1544 50.4181 30.1686 50.3651 30.1818C50.3139 30.1951 50.259 30.2074 50.2003 30.2188C50.1435 30.2301 50.0838 30.2405 50.0213 30.25C49.9001 30.2689 49.8007 30.3002 49.723 30.3438C49.6473 30.3854 49.5904 30.4375 49.5526 30.5C49.5166 30.5606 49.4986 30.6288 49.4986 30.7045C49.4986 30.8258 49.5412 30.9186 49.6264 30.983C49.7116 31.0473 49.8205 31.0795 49.9531 31.0795ZM52.7592 30.6818H54.2365C54.2365 30.7917 54.2839 30.8816 54.3786 30.9517C54.4751 31.0218 54.5982 31.0568 54.7479 31.0568C54.8975 31.0568 55.0196 31.018 55.1143 30.9403C55.2109 30.8608 55.2592 30.7595 55.2592 30.6364C55.2592 30.5587 55.2393 30.4905 55.1996 30.4318C55.1598 30.3712 55.1049 30.3239 55.0348 30.2898C54.9647 30.2557 54.8842 30.2386 54.7933 30.2386H54.2479V29.3182H54.7933C54.9278 29.3182 55.0367 29.286 55.12 29.2216C55.2053 29.1572 55.2479 29.0758 55.2479 28.9773C55.2479 28.8636 55.2062 28.7708 55.1229 28.6989C55.0395 28.6269 54.9335 28.5909 54.8047 28.5909C54.6759 28.5909 54.5698 28.6203 54.4865 28.679C54.4032 28.7377 54.3615 28.8144 54.3615 28.9091H52.8842C52.8842 28.6288 52.9676 28.3902 53.1342 28.1932C53.3009 27.9943 53.5244 27.8428 53.8047 27.7386C54.085 27.6326 54.3956 27.5795 54.7365 27.5795C55.1267 27.5795 55.4619 27.6269 55.7422 27.7216C56.0225 27.8163 56.2375 27.9555 56.3871 28.1392C56.5367 28.3229 56.6115 28.5492 56.6115 28.8182C56.6115 29.0398 56.531 29.2301 56.37 29.3892C56.209 29.5464 55.9714 29.6591 55.657 29.7273V29.7727C55.8445 29.7822 56.0187 29.8267 56.1797 29.9062C56.3426 29.9858 56.4742 30.0994 56.5746 30.2472C56.675 30.3949 56.7251 30.5777 56.7251 30.7955C56.7251 31.0682 56.6399 31.3002 56.4695 31.4915C56.3009 31.6828 56.0679 31.8286 55.7706 31.929C55.4732 32.0294 55.1323 32.0795 54.7479 32.0795C54.3729 32.0795 54.0376 32.0294 53.7422 31.929C53.4467 31.8267 53.2119 31.6723 53.0376 31.4659C52.8634 31.2576 52.7706 30.9962 52.7592 30.6818ZM58.8125 30L60.0284 27.6364H61.5057V32H60.0284V29.625L58.8125 32H57.3352V27.6364H58.8125V30ZM65.4176 29.2159V30.3864H63.2244V29.2159H65.4176ZM63.7812 27.6364V32H62.304V27.6364H63.7812ZM66.3381 27.6364V32H64.8722V27.6364H66.3381Z" fill="black"/>
<path d="M49.6974 39.0497C49.4181 39.0497 49.1701 39.0006 48.9535 38.9023C48.738 38.8029 48.5682 38.6662 48.4439 38.4922C48.3208 38.3182 48.258 38.1181 48.2557 37.892H49.2145C49.218 38.0175 49.2666 38.1175 49.3601 38.1921C49.4548 38.2667 49.5672 38.304 49.6974 38.304C49.7981 38.304 49.8868 38.2827 49.9638 38.2401C50.0407 38.1963 50.1011 38.1347 50.1449 38.0554C50.1887 37.9761 50.21 37.8838 50.2088 37.7784C50.21 37.6719 50.1887 37.5795 50.1449 37.5014C50.1011 37.4221 50.0407 37.3612 49.9638 37.3185C49.8868 37.2747 49.7981 37.2528 49.6974 37.2528C49.5933 37.2528 49.4968 37.2783 49.408 37.3292C49.3204 37.3789 49.2559 37.4482 49.2145 37.5369L48.348 37.3665L48.4901 35.3636H50.9332V36.152H49.2997L49.2287 36.9545H49.25C49.3068 36.8445 49.4051 36.7533 49.5447 36.6811C49.6844 36.6077 49.8466 36.571 50.0312 36.571C50.2479 36.571 50.4408 36.6213 50.6101 36.7219C50.7805 36.8226 50.9149 36.9616 51.0131 37.1392C51.1126 37.3156 51.1617 37.5192 51.1605 37.75C51.1617 38.0033 51.1013 38.2282 50.9794 38.4247C50.8587 38.62 50.6888 38.7733 50.4698 38.8846C50.2508 38.9947 49.9934 39.0497 49.6974 39.0497Z" fill="black"/>
<path d="M91.375 26.1818H93.3409L94.6932 29.4773H94.7614L96.1136 26.1818H98.0795V32H96.5341V28.6364H96.4886L95.1932 31.9545H94.2614L92.9659 28.6136H92.9205V32H91.375V26.1818ZM100.067 32.0682C99.7884 32.0682 99.5421 32.0227 99.3281 31.9318C99.116 31.839 98.9493 31.6989 98.8281 31.5114C98.7069 31.3239 98.6463 31.0852 98.6463 30.7955C98.6463 30.5568 98.687 30.3532 98.7685 30.1847C98.8499 30.0142 98.9635 29.875 99.1094 29.767C99.2552 29.6591 99.4247 29.5767 99.6179 29.5199C99.813 29.4631 100.023 29.4261 100.249 29.4091C100.493 29.3902 100.689 29.3674 100.837 29.3409C100.986 29.3125 101.094 29.2737 101.161 29.2244C101.227 29.1733 101.26 29.1061 101.26 29.0227V29.0114C101.26 28.8977 101.216 28.8106 101.129 28.75C101.042 28.6894 100.93 28.6591 100.794 28.6591C100.644 28.6591 100.522 28.6922 100.428 28.7585C100.335 28.8229 100.279 28.9223 100.26 29.0568H98.8168C98.8357 28.7917 98.92 28.5473 99.0696 28.3239C99.2211 28.0985 99.4418 27.9186 99.7315 27.7841C100.021 27.6477 100.383 27.5795 100.817 27.5795C101.129 27.5795 101.41 27.6165 101.658 27.6903C101.906 27.7623 102.117 27.8636 102.291 27.9943C102.465 28.1231 102.598 28.2746 102.689 28.4489C102.782 28.6212 102.828 28.8087 102.828 29.0114V32H101.362V31.3864H101.328C101.241 31.5492 101.135 31.6809 101.01 31.7812C100.887 31.8816 100.746 31.9545 100.587 32C100.429 32.0455 100.256 32.0682 100.067 32.0682ZM100.578 31.0795C100.697 31.0795 100.809 31.0549 100.913 31.0057C101.019 30.9564 101.106 30.8854 101.172 30.7926C101.238 30.6998 101.271 30.5871 101.271 30.4545V30.0909C101.23 30.108 101.185 30.1241 101.138 30.1392C101.092 30.1544 101.043 30.1686 100.99 30.1818C100.939 30.1951 100.884 30.2074 100.825 30.2188C100.768 30.2301 100.709 30.2405 100.646 30.25C100.525 30.2689 100.426 30.3002 100.348 30.3438C100.272 30.3854 100.215 30.4375 100.178 30.5C100.142 30.5606 100.124 30.6288 100.124 30.7045C100.124 30.8258 100.166 30.9186 100.251 30.983C100.337 31.0473 100.446 31.0795 100.578 31.0795ZM106.759 27.6364V28.8068H105.089V32H103.577V27.6364H106.759ZM108.442 32.0682C108.163 32.0682 107.917 32.0227 107.703 31.9318C107.491 31.839 107.324 31.6989 107.203 31.5114C107.082 31.3239 107.021 31.0852 107.021 30.7955C107.021 30.5568 107.062 30.3532 107.143 30.1847C107.225 30.0142 107.339 29.875 107.484 29.767C107.63 29.6591 107.8 29.5767 107.993 29.5199C108.188 29.4631 108.398 29.4261 108.624 29.4091C108.868 29.3902 109.064 29.3674 109.212 29.3409C109.361 29.3125 109.469 29.2737 109.536 29.2244C109.602 29.1733 109.635 29.1061 109.635 29.0227V29.0114C109.635 28.8977 109.591 28.8106 109.504 28.75C109.417 28.6894 109.305 28.6591 109.169 28.6591C109.019 28.6591 108.897 28.6922 108.803 28.7585C108.71 28.8229 108.654 28.9223 108.635 29.0568H107.192C107.211 28.7917 107.295 28.5473 107.445 28.3239C107.596 28.0985 107.817 27.9186 108.107 27.7841C108.396 27.6477 108.758 27.5795 109.192 27.5795C109.504 27.5795 109.785 27.6165 110.033 27.6903C110.281 27.7623 110.492 27.8636 110.666 27.9943C110.84 28.1231 110.973 28.2746 111.064 28.4489C111.157 28.6212 111.203 28.8087 111.203 29.0114V32H109.737V31.3864H109.703C109.616 31.5492 109.51 31.6809 109.385 31.7812C109.262 31.8816 109.121 31.9545 108.962 32C108.804 32.0455 108.631 32.0682 108.442 32.0682ZM108.953 31.0795C109.072 31.0795 109.184 31.0549 109.288 31.0057C109.394 30.9564 109.481 30.8854 109.547 30.7926C109.613 30.6998 109.646 30.5871 109.646 30.4545V30.0909C109.605 30.108 109.56 30.1241 109.513 30.1392C109.467 30.1544 109.418 30.1686 109.365 30.1818C109.314 30.1951 109.259 30.2074 109.2 30.2188C109.143 30.2301 109.084 30.2405 109.021 30.25C108.9 30.2689 108.801 30.3002 108.723 30.3438C108.647 30.3854 108.59 30.4375 108.553 30.5C108.517 30.5606 108.499 30.6288 108.499 30.7045C108.499 30.8258 108.541 30.9186 108.626 30.983C108.712 31.0473 108.821 31.0795 108.953 31.0795ZM111.759 30.6818H113.237C113.237 30.7917 113.284 30.8816 113.379 30.9517C113.475 31.0218 113.598 31.0568 113.748 31.0568C113.897 31.0568 114.02 31.018 114.114 30.9403C114.211 30.8608 114.259 30.7595 114.259 30.6364C114.259 30.5587 114.239 30.4905 114.2 30.4318C114.16 30.3712 114.105 30.3239 114.035 30.2898C113.965 30.2557 113.884 30.2386 113.793 30.2386H113.248V29.3182H113.793C113.928 29.3182 114.037 29.286 114.12 29.2216C114.205 29.1572 114.248 29.0758 114.248 28.9773C114.248 28.8636 114.206 28.7708 114.123 28.6989C114.04 28.6269 113.933 28.5909 113.805 28.5909C113.676 28.5909 113.57 28.6203 113.487 28.679C113.403 28.7377 113.362 28.8144 113.362 28.9091H111.884C111.884 28.6288 111.968 28.3902 112.134 28.1932C112.301 27.9943 112.524 27.8428 112.805 27.7386C113.085 27.6326 113.396 27.5795 113.737 27.5795C114.127 27.5795 114.462 27.6269 114.742 27.7216C115.022 27.8163 115.237 27.9555 115.387 28.1392C115.537 28.3229 115.612 28.5492 115.612 28.8182C115.612 29.0398 115.531 29.2301 115.37 29.3892C115.209 29.5464 114.971 29.6591 114.657 29.7273V29.7727C114.844 29.7822 115.019 29.8267 115.18 29.9062C115.343 29.9858 115.474 30.0994 115.575 30.2472C115.675 30.3949 115.725 30.5777 115.725 30.7955C115.725 31.0682 115.64 31.3002 115.469 31.4915C115.301 31.6828 115.068 31.8286 114.771 31.929C114.473 32.0294 114.132 32.0795 113.748 32.0795C113.373 32.0795 113.038 32.0294 112.742 31.929C112.447 31.8267 112.212 31.6723 112.038 31.4659C111.863 31.2576 111.771 30.9962 111.759 30.6818ZM117.812 30L119.028 27.6364H120.506V32H119.028V29.625L117.812 32H116.335V27.6364H117.812V30ZM124.418 29.2159V30.3864H122.224V29.2159H124.418ZM122.781 27.6364V32H121.304V27.6364H122.781ZM125.338 27.6364V32H123.872V27.6364H125.338Z" fill="black"/>
<path d="M107.206 38.4318V37.6648L108.669 35.3636H109.365V36.3864H108.967L108.179 37.6364V37.6648H110.338V38.4318H107.206ZM108.974 39V38.1974L108.996 37.8636V35.3636H109.919V39H108.974Z" fill="black"/>
</svg>