<svg width="400" height="150" viewBox="0 0 400 150" fill="none" xmlns="http://www.w3.org/2000/svg">
<path d="M10 0.499998L325 0.499943C366.145 0.499936 399.5 33.8547 399.5 74.9999C399.5 116.145 366.145 149.5 325 149.5L10 149.5C4.75331 149.5 0.500025 145.247 0.500024 140L0.500002 10C0.500001 4.75329 4.7533 0.499999 10 0.499998Z" stroke="#999999"/>
<path d="M10 0.499998L275 0.499952C316.145 0.499945 349.5 33.8547 349.5 74.9999C349.5 116.145 316.145 149.5 275 149.5L10 149.5C4.75332 149.5 0.500025 145.247 0.500024 140L0.500002 10C0.500001 4.75329 4.7533 0.499999 10 0.499998Z" stroke="#999999"/>
<path d="M10 0.500059L265 0.500015C306.145 0.500008 339.5 33.8548 339.5 75C339.5 116.145 306.145 149.5 265 149.5L10 149.5C4.75333 149.5 0.500025 145.247 0.500024 140L0.500002 10.0001C0.500001 4.75336 4.7533 0.50006 10 0.500059Z" stroke="black"/>
<rect x="152" y="31.0007" width="13" height="6" fill="#B7FFEE"/>
<path d="M159.024 32.3644L159.024 36.0007L158.037 36.0007L158.037 33.2734L158.016 33.2734L157.22 33.7493L157.22 32.9112L158.115 32.3644L159.024 32.3644Z" fill="black"/>
<path d="M53.0241 123.364L53.0241 127L52.0369 127L52.0369 124.273L52.0156 124.273L51.2202 124.749L51.2202 123.911L52.1151 123.364L53.0241 123.364ZM55.3546 127.099C55.0243 127.098 54.7391 127.022 54.4988 126.87C54.2585 126.719 54.0732 126.5 53.943 126.215C53.8128 125.93 53.7483 125.588 53.7495 125.189C53.7507 124.789 53.8158 124.449 53.9448 124.17C54.075 123.89 54.2596 123.678 54.4988 123.532C54.7391 123.387 55.0243 123.314 55.3546 123.314C55.6848 123.314 55.9701 123.387 56.2104 123.534C56.4507 123.68 56.6359 123.892 56.7662 124.172C56.8964 124.451 56.9609 124.79 56.9597 125.189C56.9597 125.59 56.8946 125.933 56.7644 126.219C56.6342 126.504 56.4489 126.722 56.2086 126.874C55.9695 127.024 55.6848 127.099 55.3546 127.099ZM55.3546 126.297C55.525 126.297 55.6647 126.208 55.7736 126.031C55.8837 125.852 55.9382 125.571 55.937 125.189C55.937 124.939 55.9121 124.735 55.8624 124.576C55.8127 124.418 55.744 124.301 55.6564 124.225C55.5688 124.148 55.4682 124.109 55.3546 124.109C55.1841 124.109 55.045 124.196 54.9373 124.369C54.8296 124.541 54.7746 124.815 54.7722 125.189C54.771 125.443 54.7953 125.653 54.845 125.817C54.8947 125.981 54.9634 126.102 55.051 126.18C55.1397 126.258 55.2409 126.297 55.3546 126.297Z" fill="black"/>
<path d="M38.6619 123.314C38.8738 123.314 39.0745 123.348 39.2638 123.415C39.4532 123.481 39.6207 123.586 39.7663 123.729C39.9131 123.873 40.0279 124.06 40.1108 124.29C40.1948 124.52 40.2375 124.798 40.2386 125.125C40.2398 125.423 40.2025 125.691 40.1268 125.929C40.0522 126.166 39.9451 126.368 39.8054 126.535C39.6669 126.702 39.5 126.83 39.3047 126.918C39.1106 127.006 38.8939 127.05 38.6548 127.05C38.3861 127.05 38.15 126.998 37.9464 126.895C37.7428 126.792 37.5806 126.654 37.4599 126.48C37.3391 126.306 37.2687 126.112 37.2486 125.899L38.2216 125.899C38.2453 126.009 38.2973 126.089 38.3778 126.139C38.4583 126.187 38.5507 126.212 38.6548 126.212C38.8632 126.212 39.0153 126.122 39.1112 125.942C39.2082 125.761 39.2573 125.519 39.2585 125.217L39.2372 125.217C39.1911 125.329 39.1212 125.424 39.0277 125.503C38.9342 125.583 38.8253 125.643 38.701 125.686C38.5767 125.729 38.4453 125.75 38.3068 125.75C38.0878 125.75 37.8961 125.701 37.7315 125.603C37.567 125.503 37.4386 125.368 37.3462 125.196C37.2539 125.023 37.2072 124.827 37.206 124.607C37.2048 124.348 37.2657 124.122 37.3888 123.928C37.512 123.734 37.683 123.583 37.902 123.475C38.121 123.368 38.3743 123.314 38.6619 123.314ZM38.669 124.06C38.5708 124.06 38.4832 124.082 38.4063 124.127C38.3305 124.172 38.2707 124.233 38.2269 124.31C38.1843 124.387 38.1636 124.474 38.1648 124.571C38.166 124.668 38.1879 124.755 38.2305 124.832C38.2743 124.909 38.3335 124.97 38.408 125.015C38.4838 125.06 38.5708 125.082 38.669 125.082C38.7412 125.082 38.8081 125.07 38.8697 125.045C38.9312 125.019 38.9845 124.983 39.0295 124.937C39.0756 124.889 39.1112 124.835 39.136 124.773C39.1621 124.711 39.1745 124.643 39.1733 124.571C39.1721 124.474 39.1496 124.387 39.1058 124.31C39.062 124.233 39.0022 124.172 38.9265 124.127C38.8507 124.082 38.7649 124.06 38.669 124.06Z" fill="black"/>
<path d="M175 150L175 133.818L175 125.727M175 61L175 69.0909L175 85.2727L175 101.455L175 109.545" stroke="black"/>
<line x1="221" y1="60.5" x2="165" y2="60.5" stroke="black"/>
<path d="M165.5 60L165.5 30M165.5 0L165.5 15L165.5 22.5" stroke="black"/>
<path d="M221 60.5H235.625M338 60.5H279.5H250.25" stroke="black"/>
<rect x="79.25" y="44.25" width="43.5" height="60.5" fill="#C0D8FC" stroke="black" stroke-width="0.5"/>
<circle cx="101" cy="22" r="11.75" fill="#C0D8FC" stroke="black" stroke-width="0.5"/>
<circle cx="101" cy="127" r="11.75" fill="#C0D8FC" stroke="black" stroke-width="0.5"/>
<path d="M48.5 33.5V10.5098C55.1718 10.7723 60.5 16.2639 60.5 23V33.5H48.5Z" stroke="black"/>
<path d="M32.5 33.5V10.5098C39.1718 10.7723 44.5 16.2639 44.5 23V33.5H32.5Z" stroke="black"/>
<path d="M48.5 115.5V138.49C55.1718 138.228 60.5 132.736 60.5 126V115.5H48.5Z" stroke="black"/>
<path d="M32.5 115.5V138.49C39.1718 138.228 44.5 132.736 44.5 126V115.5H32.5Z" stroke="black"/>
<path d="M205.216 26.4545V25.1818H210.273V26.4545H208.523V31H206.966V26.4545H205.216ZM210.437 32.6364V26.6364H211.994V27.3977H212.028C212.085 27.25 212.168 27.1146 212.278 26.9915C212.388 26.8665 212.524 26.767 212.687 26.6932C212.85 26.6174 213.039 26.5795 213.255 26.5795C213.543 26.5795 213.817 26.6562 214.076 26.8097C214.337 26.9631 214.549 27.2045 214.712 27.5341C214.877 27.8636 214.96 28.2917 214.96 28.8182C214.96 29.322 214.881 29.7396 214.724 30.071C214.568 30.4025 214.36 30.6496 214.099 30.8125C213.839 30.9754 213.554 31.0568 213.244 31.0568C213.039 31.0568 212.856 31.0237 212.695 30.9574C212.536 30.8892 212.4 30.7973 212.286 30.6818C212.174 30.5644 212.088 30.4318 212.028 30.2841H212.005V32.6364H210.437ZM211.971 28.8182C211.971 29.0303 211.998 29.214 212.053 29.3693C212.11 29.5227 212.19 29.642 212.292 29.7273C212.396 29.8106 212.52 29.8523 212.664 29.8523C212.808 29.8523 212.93 29.8116 213.031 29.7301C213.133 29.6468 213.21 29.5284 213.263 29.375C213.318 29.2197 213.346 29.0341 213.346 28.8182C213.346 28.6023 213.318 28.4176 213.263 28.2642C213.21 28.1089 213.133 27.9905 213.031 27.9091C212.93 27.8258 212.808 27.7841 212.664 27.7841C212.52 27.7841 212.396 27.8258 212.292 27.9091C212.19 27.9905 212.11 28.1089 212.053 28.2642C211.998 28.4176 211.971 28.6023 211.971 28.8182ZM217.707 31.0795C217.241 31.0795 216.84 30.9905 216.503 30.8125C216.168 30.6326 215.909 30.375 215.727 30.0398C215.547 29.7027 215.457 29.2992 215.457 28.8295C215.457 28.3788 215.548 27.9848 215.73 27.6477C215.912 27.3106 216.169 27.0483 216.5 26.8608C216.831 26.6733 217.223 26.5795 217.673 26.5795C218.003 26.5795 218.301 26.6307 218.568 26.733C218.835 26.8352 219.063 26.9839 219.253 27.179C219.442 27.3722 219.588 27.607 219.69 27.8835C219.793 28.16 219.844 28.4716 219.844 28.8182V29.1818H215.946V28.3182H218.401C218.399 28.1932 218.366 28.0833 218.304 27.9886C218.243 27.892 218.161 27.8172 218.057 27.7642C217.955 27.7093 217.838 27.6818 217.707 27.6818C217.58 27.6818 217.464 27.7093 217.358 27.7642C217.252 27.8172 217.167 27.8911 217.102 27.9858C217.04 28.0805 217.007 28.1913 217.003 28.3182V29.25C217.003 29.3902 217.032 29.5152 217.091 29.625C217.15 29.7348 217.234 29.821 217.344 29.8835C217.454 29.946 217.586 29.9773 217.741 29.9773C217.849 29.9773 217.948 29.9621 218.037 29.9318C218.128 29.9015 218.205 29.858 218.27 29.8011C218.334 29.7424 218.382 29.6723 218.412 29.5909H219.844C219.795 29.8939 219.678 30.1572 219.494 30.3807C219.311 30.6023 219.067 30.7746 218.764 30.8977C218.463 31.0189 218.111 31.0795 217.707 31.0795ZM223.597 28.2159V29.3864H221.404V28.2159H223.597ZM221.961 26.6364V31H220.484V26.6364H221.961ZM224.518 26.6364V31H223.052V26.6364H224.518ZM226.481 31.0682C226.202 31.0682 225.956 31.0227 225.742 30.9318C225.53 30.839 225.363 30.6989 225.242 30.5114C225.121 30.3239 225.06 30.0852 225.06 29.7955C225.06 29.5568 225.101 29.3532 225.183 29.1847C225.264 29.0142 225.378 28.875 225.523 28.767C225.669 28.6591 225.839 28.5767 226.032 28.5199C226.227 28.4631 226.437 28.4261 226.663 28.4091C226.907 28.3902 227.103 28.3674 227.251 28.3409C227.4 28.3125 227.508 28.2737 227.575 28.2244C227.641 28.1733 227.674 28.1061 227.674 28.0227V28.0114C227.674 27.8977 227.63 27.8106 227.543 27.75C227.456 27.6894 227.344 27.6591 227.208 27.6591C227.058 27.6591 226.936 27.6922 226.842 27.7585C226.749 27.8229 226.693 27.9223 226.674 28.0568H225.231C225.25 27.7917 225.334 27.5473 225.484 27.3239C225.635 27.0985 225.856 26.9186 226.146 26.7841C226.435 26.6477 226.797 26.5795 227.231 26.5795C227.543 26.5795 227.824 26.6165 228.072 26.6903C228.32 26.7623 228.531 26.8636 228.705 26.9943C228.879 27.1231 229.012 27.2746 229.103 27.4489C229.196 27.6212 229.242 27.8087 229.242 28.0114V31H227.776V30.3864H227.742C227.655 30.5492 227.549 30.6809 227.424 30.7812C227.301 30.8816 227.16 30.9545 227.001 31C226.844 31.0455 226.67 31.0682 226.481 31.0682ZM226.992 30.0795C227.112 30.0795 227.223 30.0549 227.327 30.0057C227.433 29.9564 227.52 29.8854 227.586 29.7926C227.652 29.6998 227.685 29.5871 227.685 29.4545V29.0909C227.644 29.108 227.599 29.1241 227.552 29.1392C227.506 29.1544 227.457 29.1686 227.404 29.1818C227.353 29.1951 227.298 29.2074 227.239 29.2188C227.183 29.2301 227.123 29.2405 227.06 29.25C226.939 29.2689 226.84 29.3002 226.762 29.3438C226.686 29.3854 226.629 29.4375 226.592 29.5C226.556 29.5606 226.538 29.6288 226.538 29.7045C226.538 29.8258 226.58 29.9186 226.665 29.983C226.751 30.0473 226.86 30.0795 226.992 30.0795ZM229.696 31L231.06 28.6932L229.696 26.6364H231.469L232.389 28.2386H232.457V26.6364H234.026V28.2386H234.094L235.014 26.6364H236.787L235.423 28.6932L236.787 31H234.969L234.082 29.4091H234.026V31H232.457V29.4091H232.401L231.514 31H229.696ZM239.231 31.0795C238.765 31.0795 238.363 30.9905 238.026 30.8125C237.691 30.6326 237.433 30.375 237.251 30.0398C237.071 29.7027 236.981 29.2992 236.981 28.8295C236.981 28.3788 237.072 27.9848 237.254 27.6477C237.435 27.3106 237.692 27.0483 238.023 26.8608C238.355 26.6733 238.746 26.5795 239.197 26.5795C239.526 26.5795 239.825 26.6307 240.092 26.733C240.359 26.8352 240.587 26.9839 240.776 27.179C240.966 27.3722 241.112 27.607 241.214 27.8835C241.316 28.16 241.367 28.4716 241.367 28.8182V29.1818L237.469 29.1818V28.3182H239.924C239.922 28.1932 239.89 28.0833 239.827 27.9886C239.767 27.892 239.684 27.8172 239.58 27.7642C239.478 27.7093 239.362 27.6818 239.231 27.6818C239.104 27.6818 238.987 27.7093 238.881 27.7642C238.775 27.8172 238.69 27.8911 238.626 27.9858C238.563 28.0805 238.53 28.1913 238.526 28.3182V29.25C238.526 29.3902 238.556 29.5152 238.614 29.625C238.673 29.7348 238.757 29.821 238.867 29.8835C238.977 29.946 239.11 29.9773 239.265 29.9773C239.373 29.9773 239.471 29.9621 239.56 29.9318C239.651 29.9015 239.729 29.858 239.793 29.8011C239.858 29.7424 239.905 29.6723 239.935 29.5909L241.367 29.5909C241.318 29.8939 241.201 30.1572 241.018 30.3807C240.834 30.6023 240.591 30.7746 240.288 30.8977C239.987 31.0189 239.634 31.0795 239.231 31.0795ZM242.007 32.6364V26.6364H243.564V27.3977H243.598C243.655 27.25 243.738 27.1146 243.848 26.9915C243.958 26.8665 244.094 26.767 244.257 26.6932C244.42 26.6174 244.609 26.5795 244.825 26.5795C245.113 26.5795 245.387 26.6563 245.646 26.8097C245.908 26.9631 246.12 27.2045 246.283 27.5341C246.447 27.8636 246.53 28.2917 246.53 28.8182C246.53 29.322 246.451 29.7396 246.294 30.071C246.139 30.4025 245.93 30.6496 245.669 30.8125C245.41 30.9754 245.125 31.0568 244.814 31.0568C244.609 31.0568 244.427 31.0237 244.266 30.9574C244.107 30.8892 243.97 30.7973 243.857 30.6818C243.745 30.5644 243.659 30.4318 243.598 30.2841H243.575V32.6364H242.007ZM243.541 28.8182C243.541 29.0303 243.569 29.214 243.624 29.3693C243.68 29.5227 243.76 29.642 243.862 29.7273C243.966 29.8106 244.09 29.8523 244.234 29.8523C244.378 29.8523 244.5 29.8116 244.601 29.7301C244.703 29.6468 244.781 29.5284 244.834 29.375C244.889 29.2197 244.916 29.0341 244.916 28.8182C244.916 28.6023 244.889 28.4176 244.834 28.2642C244.781 28.1089 244.703 27.9905 244.601 27.9091C244.5 27.8258 244.378 27.7841 244.234 27.7841C244.09 27.7841 243.966 27.8258 243.862 27.9091C243.76 27.9905 243.68 28.1089 243.624 28.2642C243.569 28.4176 243.541 28.6023 243.541 28.8182ZM250.3 28.2159V29.3864H248.107V28.2159H250.3ZM248.664 26.6364V31L247.187 31V26.6364H248.664ZM251.221 26.6364V31H249.755V26.6364H251.221ZM252.843 27.8182H254.184C254.807 27.8182 255.298 27.9621 255.656 28.25C256.013 28.536 256.193 28.9299 256.195 29.4318C256.193 29.7557 256.111 30.035 255.948 30.2699C255.787 30.5047 255.556 30.6856 255.255 30.8125C254.956 30.9375 254.599 31 254.184 31H251.968V26.6364H253.445V29.8295H254.184C254.345 29.8295 254.478 29.7917 254.582 29.7159C254.686 29.6383 254.739 29.5398 254.741 29.4205C254.739 29.2936 254.686 29.1903 254.582 29.1108C254.478 29.0294 254.345 28.9886 254.184 28.9886H252.843V27.8182ZM256.513 31V26.6364H258.082V31H256.513ZM260.352 29L261.567 26.6364H263.045V31H261.567V28.625L260.352 31H258.874V26.6364H260.352V29ZM261.522 25.0682H262.511C262.509 25.4375 262.368 25.733 262.087 25.9545C261.807 26.1742 261.429 26.2841 260.954 26.2841C260.475 26.2841 260.095 26.1742 259.815 25.9545C259.534 25.733 259.395 25.4375 259.397 25.0682H260.374C260.372 25.1875 260.415 25.2973 260.502 25.3977C260.591 25.4962 260.742 25.5455 260.954 25.5455C261.156 25.5455 261.301 25.4972 261.388 25.4006C261.476 25.304 261.52 25.1932 261.522 25.0682ZM265.244 29.6818H266.721C266.721 29.7917 266.768 29.8816 266.863 29.9517C266.96 30.0218 267.083 30.0568 267.232 30.0568C267.382 30.0568 267.504 30.018 267.599 29.9403C267.695 29.8608 267.744 29.7595 267.744 29.6364C267.744 29.5587 267.724 29.4905 267.684 29.4318C267.644 29.3712 267.589 29.3239 267.519 29.2898C267.449 29.2557 267.369 29.2386 267.278 29.2386H266.732V28.3182H267.278C267.412 28.3182 267.521 28.286 267.604 28.2216C267.69 28.1572 267.732 28.0758 267.732 27.9773C267.732 27.8636 267.691 27.7708 267.607 27.6989C267.524 27.6269 267.418 27.5909 267.289 27.5909C267.16 27.5909 267.054 27.6203 266.971 27.679C266.888 27.7377 266.846 27.8144 266.846 27.9091H265.369C265.369 27.6288 265.452 27.3902 265.619 27.1932C265.785 26.9943 266.009 26.8428 266.289 26.7386C266.569 26.6326 266.88 26.5795 267.221 26.5795C267.611 26.5795 267.946 26.6269 268.227 26.7216C268.507 26.8163 268.722 26.9555 268.871 27.1392C269.021 27.3229 269.096 27.5492 269.096 27.8182C269.096 28.0398 269.015 28.2301 268.854 28.3892C268.693 28.5464 268.456 28.6591 268.141 28.7273V28.7727C268.329 28.7822 268.503 28.8267 268.664 28.9063C268.827 28.9858 268.959 29.0994 269.059 29.2472C269.159 29.3949 269.21 29.5777 269.21 29.7955C269.21 30.0682 269.124 30.3002 268.954 30.4915C268.785 30.6828 268.552 30.8286 268.255 30.929C267.958 31.0294 267.617 31.0795 267.232 31.0795C266.857 31.0795 266.522 31.0294 266.227 30.929C265.931 30.8267 265.696 30.6723 265.522 30.4659C265.348 30.2576 265.255 29.9962 265.244 29.6818ZM271.036 31.0682C270.757 31.0682 270.511 31.0227 270.297 30.9318C270.085 30.839 269.918 30.6989 269.797 30.5114C269.676 30.3239 269.615 30.0852 269.615 29.7955C269.615 29.5568 269.656 29.3532 269.737 29.1847C269.819 29.0142 269.932 28.875 270.078 28.767C270.224 28.6591 270.393 28.5767 270.587 28.5199C270.782 28.4631 270.992 28.4261 271.217 28.4091C271.462 28.3902 271.658 28.3674 271.805 28.3409C271.955 28.3125 272.063 28.2737 272.129 28.2244C272.196 28.1733 272.229 28.1061 272.229 28.0227V28.0114C272.229 27.8977 272.185 27.8106 272.098 27.75C272.011 27.6894 271.899 27.6591 271.763 27.6591C271.613 27.6591 271.491 27.6922 271.396 27.7585C271.304 27.8229 271.248 27.9223 271.229 28.0568H269.786C269.804 27.7917 269.889 27.5473 270.038 27.3239C270.19 27.0985 270.411 26.9186 270.7 26.7841C270.99 26.6477 271.352 26.5795 271.786 26.5795C272.098 26.5795 272.378 26.6165 272.626 26.6903C272.875 26.7623 273.086 26.8636 273.26 26.9943C273.434 27.1231 273.567 27.2746 273.658 27.4489C273.75 27.6212 273.797 27.8087 273.797 28.0114V31H272.331V30.3864H272.297C272.21 30.5492 272.104 30.6809 271.979 30.7813C271.856 30.8816 271.714 30.9545 271.555 31C271.398 31.0455 271.225 31.0682 271.036 31.0682ZM271.547 30.0795C271.666 30.0795 271.778 30.0549 271.882 30.0057C271.988 29.9564 272.074 29.8854 272.141 29.7926C272.207 29.6998 272.24 29.5871 272.24 29.4545V29.0909C272.198 29.108 272.154 29.1241 272.107 29.1392C272.061 29.1544 272.012 29.1686 271.959 29.1818C271.908 29.1951 271.853 29.2074 271.794 29.2188C271.737 29.2301 271.678 29.2405 271.615 29.25C271.494 29.2689 271.394 29.3002 271.317 29.3438C271.241 29.3854 271.184 29.4375 271.146 29.5C271.11 29.5606 271.092 29.6288 271.092 29.7045C271.092 29.8258 271.135 29.9186 271.22 29.983C271.305 30.0473 271.414 30.0795 271.547 30.0795ZM274.376 31L274.364 29.8182H274.501C274.586 29.8182 274.661 29.7936 274.725 29.7443C274.791 29.6951 274.847 29.6193 274.893 29.517C274.94 29.4148 274.977 29.285 275.004 29.1278C275.032 28.9706 275.05 28.7841 275.058 28.5682L275.126 26.6364H278.717V31L277.239 31V27.8068H276.512L276.444 28.9886C276.425 29.3598 276.372 29.6742 276.285 29.9318C276.2 30.1894 276.086 30.3968 275.944 30.554C275.802 30.7093 275.637 30.8229 275.45 30.8949C275.262 30.965 275.056 31 274.83 31H274.376Z" fill="black"/>
<path d="M98 57.375H103.818V61.4659H102.545V58.9545H101.864V59.5455C101.864 60.0341 101.785 60.4612 101.628 60.8267C101.471 61.1941 101.249 61.4792 100.963 61.6818C100.677 61.8864 100.341 61.9886 99.9545 61.9886C99.5682 61.9886 99.2282 61.8864 98.9347 61.6818C98.6411 61.4792 98.4119 61.1941 98.2472 60.8267C98.0824 60.4612 98 60.0341 98 59.5455V57.375ZM99.2386 58.9545V59.5455C99.2386 59.7348 99.2699 59.8939 99.3324 60.0227C99.3949 60.1534 99.4811 60.2519 99.5909 60.3182C99.7008 60.3864 99.8258 60.4205 99.9659 60.4205C100.165 60.4205 100.33 60.3456 100.46 60.196C100.593 60.0464 100.659 59.8295 100.659 59.5455V58.9545H99.2386ZM97.9318 63.7855C97.9318 63.5071 97.9773 63.2609 98.0682 63.0469C98.161 62.8348 98.3011 62.6681 98.4886 62.5469C98.6761 62.4257 98.9148 62.3651 99.2045 62.3651C99.4432 62.3651 99.6468 62.4058 99.8153 62.4872C99.9858 62.5687 100.125 62.6823 100.233 62.8281C100.341 62.974 100.423 63.1435 100.48 63.3366C100.537 63.5317 100.574 63.742 100.591 63.9673C100.61 64.2116 100.633 64.4077 100.659 64.5554C100.688 64.705 100.726 64.813 100.776 64.8793C100.827 64.9455 100.894 64.9787 100.977 64.9787H100.989C101.102 64.9787 101.189 64.9351 101.25 64.848C101.311 64.7609 101.341 64.6491 101.341 64.5128C101.341 64.3632 101.308 64.241 101.241 64.1463C101.177 64.0535 101.078 63.9976 100.943 63.9787V62.5355C101.208 62.5545 101.453 62.6387 101.676 62.7884C101.902 62.9399 102.081 63.1605 102.216 63.4503C102.352 63.7401 102.42 64.1018 102.42 64.5355C102.42 64.848 102.384 65.1283 102.31 65.3764C102.238 65.6245 102.136 65.8357 102.006 66.0099C101.877 66.1842 101.725 66.3168 101.551 66.4077C101.379 66.5005 101.191 66.5469 100.989 66.5469H98V65.081H98.6136V65.0469C98.4508 64.9598 98.3191 64.8537 98.2188 64.7287C98.1184 64.6056 98.0455 64.4645 98 64.3054C97.9545 64.1482 97.9318 63.9749 97.9318 63.7855ZM98.9205 64.2969C98.9205 64.4162 98.9451 64.5279 98.9943 64.6321C99.0436 64.7382 99.1146 64.8243 99.2074 64.8906C99.3002 64.9569 99.4129 64.9901 99.5455 64.9901H99.9091C99.892 64.9484 99.8759 64.9039 99.8608 64.8565C99.8456 64.8111 99.8314 64.7618 99.8182 64.7088C99.8049 64.6577 99.7926 64.6027 99.7812 64.544C99.7699 64.4872 99.7595 64.4276 99.75 64.3651C99.7311 64.2438 99.6998 64.1444 99.6562 64.0668C99.6146 63.991 99.5625 63.9342 99.5 63.8963C99.4394 63.8603 99.3712 63.8423 99.2955 63.8423C99.1742 63.8423 99.0814 63.8849 99.017 63.9702C98.9527 64.0554 98.9205 64.1643 98.9205 64.2969ZM97.9205 69.3984C97.9205 68.925 98.0142 68.5196 98.2017 68.1825C98.3911 67.8454 98.6544 67.5869 98.9915 67.407C99.3305 67.227 99.7235 67.1371 100.17 67.1371C100.617 67.1371 101.009 67.227 101.347 67.407C101.686 67.5869 101.949 67.8454 102.136 68.1825C102.326 68.5196 102.42 68.925 102.42 69.3984C102.42 69.8265 102.343 70.1967 102.188 70.5092C102.034 70.8236 101.816 71.067 101.534 71.2393C101.254 71.4117 100.924 71.4988 100.545 71.5007V70.0462C100.775 70.0253 100.949 69.959 101.068 69.8473C101.189 69.7375 101.25 69.5954 101.25 69.4212C101.25 69.2848 101.21 69.1655 101.131 69.0632C101.053 68.9609 100.935 68.8814 100.776 68.8246C100.618 68.7678 100.42 68.7393 100.182 68.7393C99.9432 68.7393 99.7443 68.7678 99.5852 68.8246C99.428 68.8814 99.3097 68.9609 99.2301 69.0632C99.1525 69.1655 99.1136 69.2848 99.1136 69.4212C99.1136 69.5367 99.1402 69.639 99.1932 69.728C99.2481 69.817 99.3277 69.889 99.4318 69.9439C99.5379 70.0007 99.6667 70.0348 99.8182 70.0462V71.5007C99.4337 71.495 99.0985 71.407 98.8125 71.2365C98.5284 71.0661 98.3087 70.8246 98.1534 70.5121C97.9981 70.2015 97.9205 69.8303 97.9205 69.3984ZM97.9205 74.25C97.9205 73.7765 98.0142 73.3712 98.2017 73.0341C98.3911 72.697 98.6544 72.4384 98.9915 72.2585C99.3305 72.0786 99.7235 71.9886 100.17 71.9886C100.617 71.9886 101.009 72.0786 101.347 72.2585C101.686 72.4384 101.949 72.697 102.136 73.0341C102.326 73.3712 102.42 73.7765 102.42 74.25C102.42 74.678 102.343 75.0483 102.188 75.3608C102.034 75.6752 101.816 75.9186 101.534 76.0909C101.254 76.2633 100.924 76.3504 100.545 76.3523V74.8977C100.775 74.8769 100.949 74.8106 101.068 74.6989C101.189 74.589 101.25 74.447 101.25 74.2727C101.25 74.1364 101.21 74.017 101.131 73.9148C101.053 73.8125 100.935 73.733 100.776 73.6761C100.618 73.6193 100.42 73.5909 100.182 73.5909C99.9432 73.5909 99.7443 73.6193 99.5852 73.6761C99.428 73.733 99.3097 73.8125 99.2301 73.9148C99.1525 74.017 99.1136 74.1364 99.1136 74.2727C99.1136 74.3883 99.1402 74.4905 99.1932 74.5795C99.2481 74.6686 99.3277 74.7405 99.4318 74.7955C99.5379 74.8523 99.6667 74.8864 99.8182 74.8977V76.3523C99.4337 76.3466 99.0985 76.2585 98.8125 76.0881C98.5284 75.9176 98.3087 75.6761 98.1534 75.3636C97.9981 75.053 97.9205 74.6818 97.9205 74.25ZM97.9205 79.0902C97.9205 78.6243 98.0095 78.2228 98.1875 77.8857C98.3674 77.5504 98.625 77.2919 98.9602 77.1101C99.2973 76.9302 99.7008 76.8402 100.17 76.8402C100.621 76.8402 101.015 76.9311 101.352 77.1129C101.689 77.2947 101.952 77.5514 102.139 77.8828C102.327 78.2143 102.42 78.6054 102.42 79.0561C102.42 79.3857 102.369 79.6839 102.267 79.951C102.165 80.218 102.016 80.4463 101.821 80.6357C101.628 80.825 101.393 80.9709 101.116 81.0732C100.84 81.1754 100.528 81.2266 100.182 81.2266H99.8182V77.3288H100.682V79.7834C100.807 79.7815 100.917 79.7493 101.011 79.6868C101.108 79.6262 101.183 79.5438 101.236 79.4396C101.291 79.3374 101.318 79.2209 101.318 79.0902C101.318 78.9633 101.291 78.8468 101.236 78.7408C101.183 78.6347 101.109 78.5495 101.014 78.4851C100.92 78.4226 100.809 78.3894 100.682 78.3857H99.75C99.6098 78.3857 99.4848 78.415 99.375 78.4737C99.2652 78.5324 99.179 78.6167 99.1165 78.7266C99.054 78.8364 99.0227 78.969 99.0227 79.1243C99.0227 79.2322 99.0379 79.3307 99.0682 79.4197C99.0985 79.5107 99.142 79.5883 99.1989 79.6527C99.2576 79.7171 99.3277 79.7644 99.4091 79.7947V81.2266C99.1061 81.1773 98.8428 81.0608 98.6193 80.8771C98.3977 80.6934 98.2254 80.45 98.1023 80.147C97.9811 79.8459 97.9205 79.4936 97.9205 79.0902ZM100 83.3438L102.364 84.5597V86.0369H98V84.5597H100.375L98 83.3438V81.8665H102.364V83.3438H100ZM103.932 84.5142V85.5028C103.563 85.5009 103.267 85.3598 103.045 85.0795C102.826 84.7992 102.716 84.4214 102.716 83.946C102.716 83.4669 102.826 83.0871 103.045 82.8068C103.267 82.5265 103.563 82.3873 103.932 82.3892V83.3665C103.813 83.3646 103.703 83.4072 103.602 83.4943C103.504 83.5833 103.455 83.7339 103.455 83.946C103.455 84.1487 103.503 84.2936 103.599 84.3807C103.696 84.4678 103.807 84.5123 103.932 84.5142ZM100.784 89.9489H99.6136V87.7557H100.784V89.9489ZM102.364 88.3125H98V86.8352H102.364V88.3125ZM102.364 90.8693H98V89.4034H102.364V90.8693Z" fill="black"/>
<path d="M242.825 38.0994C242.495 38.0982 242.21 38.0219 241.969 37.8704C241.729 37.7189 241.544 37.5005 241.414 37.2152C241.283 36.9299 241.219 36.5878 241.22 36.1889C241.221 35.7888 241.286 35.4491 241.415 35.1697C241.546 34.8904 241.73 34.6779 241.969 34.5323C242.21 34.3867 242.495 34.3139 242.825 34.3139C243.156 34.3139 243.441 34.3873 243.681 34.5341C243.921 34.6797 244.107 34.8922 244.237 35.1715C244.367 35.4509 244.432 35.79 244.43 36.1889C244.43 36.5902 244.365 36.9335 244.235 37.2188C244.105 37.504 243.92 37.7224 243.679 37.8739C243.44 38.0243 243.156 38.0994 242.825 38.0994ZM242.825 37.2969C242.996 37.2969 243.135 37.2081 243.244 37.0305C243.354 36.8518 243.409 36.5713 243.408 36.1889C243.408 35.9392 243.383 35.735 243.333 35.5763C243.283 35.4177 243.215 35.3005 243.127 35.2248C243.04 35.1478 242.939 35.1094 242.825 35.1094C242.655 35.1094 242.516 35.1958 242.408 35.3686C242.3 35.5414 242.245 35.8149 242.243 36.1889C242.242 36.4434 242.266 36.6529 242.316 36.8175C242.365 36.9808 242.434 37.1016 242.522 37.1797C242.61 37.2578 242.712 37.2969 242.825 37.2969Z" fill="black"/>
<path d="M226.875 96.7614H228.432C228.92 96.7614 229.353 96.8608 229.73 97.0597C230.109 97.2585 230.405 97.5407 230.619 97.9062C230.835 98.2718 230.943 98.7045 230.943 99.2045C230.943 99.678 230.835 100.088 230.619 100.435C230.405 100.781 230.109 101.049 229.73 101.239C229.353 101.428 228.92 101.523 228.432 101.523H226.875C226.383 101.523 225.946 101.429 225.565 101.241C225.187 101.054 224.889 100.786 224.673 100.438C224.459 100.089 224.352 99.6742 224.352 99.1932C224.352 98.6932 224.461 98.2614 224.679 97.8977C224.899 97.5341 225.198 97.2538 225.577 97.0568C225.957 96.8598 226.39 96.7614 226.875 96.7614ZM226.875 98.0568C226.678 98.0568 226.496 98.0937 226.33 98.1676C226.165 98.2415 226.032 98.3617 225.932 98.5284C225.833 98.6951 225.784 98.9167 225.784 99.1932C225.784 99.447 225.835 99.6496 225.938 99.8011C226.042 99.9527 226.176 100.062 226.341 100.128C226.508 100.194 226.686 100.227 226.875 100.227H228.443C228.636 100.227 228.812 100.193 228.972 100.125C229.133 100.055 229.26 99.9451 229.355 99.7955C229.452 99.6439 229.5 99.447 229.5 99.2045C229.5 98.928 229.452 98.7055 229.355 98.5369C229.26 98.3684 229.133 98.2462 228.972 98.1705C228.812 98.0947 228.636 98.0568 228.443 98.0568H226.875ZM228.386 96.0795V102.239H226.909V96.0795H228.386ZM233.172 100L234.388 97.6364H235.865V102H234.388V99.625L233.172 102H231.695V97.6364H233.172V100ZM236.33 98.8068V97.6364H240.558V98.8068H239.171V102H237.694V98.8068H236.33ZM244.254 99.2159V100.386H242.06V99.2159H244.254ZM242.617 97.6364V102H241.14V97.6364H242.617ZM245.174 97.6364V102H243.708V97.6364H245.174ZM248.012 102.08C247.546 102.08 247.145 101.991 246.808 101.812C246.472 101.633 246.214 101.375 246.032 101.04C245.852 100.703 245.762 100.299 245.762 99.8295C245.762 99.3788 245.853 98.9848 246.035 98.6477C246.217 98.3106 246.473 98.0483 246.805 97.8608C247.136 97.6733 247.527 97.5795 247.978 97.5795C248.308 97.5795 248.606 97.6307 248.873 97.733C249.14 97.8352 249.368 97.9839 249.558 98.179C249.747 98.3722 249.893 98.607 249.995 98.8835C250.097 99.16 250.148 99.4716 250.148 99.8182V100.182H246.251V99.3182H248.705C248.703 99.1932 248.671 99.0833 248.609 98.9886C248.548 98.892 248.466 98.8172 248.362 98.7642C248.259 98.7093 248.143 98.6818 248.012 98.6818C247.885 98.6818 247.769 98.7093 247.663 98.7642C247.557 98.8172 247.471 98.8911 247.407 98.9858C247.344 99.0805 247.311 99.1913 247.308 99.3182V100.25C247.308 100.39 247.337 100.515 247.396 100.625C247.454 100.735 247.539 100.821 247.648 100.884C247.758 100.946 247.891 100.977 248.046 100.977C248.154 100.977 248.253 100.962 248.342 100.932C248.433 100.902 248.51 100.858 248.575 100.801C248.639 100.742 248.686 100.672 248.717 100.591H250.148C250.099 100.894 249.983 101.157 249.799 101.381C249.615 101.602 249.372 101.775 249.069 101.898C248.768 102.019 248.415 102.08 248.012 102.08ZM252.891 102.08C252.417 102.08 252.012 101.986 251.675 101.798C251.338 101.609 251.079 101.346 250.899 101.009C250.719 100.67 250.629 100.277 250.629 99.8295C250.629 99.3826 250.719 98.9905 250.899 98.6534C251.079 98.3144 251.338 98.0511 251.675 97.8636C252.012 97.6742 252.417 97.5795 252.891 97.5795C253.319 97.5795 253.689 97.6572 254.001 97.8125C254.316 97.9659 254.559 98.1837 254.732 98.4659C254.904 98.7462 254.991 99.0758 254.993 99.4545H253.538C253.518 99.2254 253.451 99.0511 253.339 98.9318C253.23 98.8106 253.088 98.75 252.913 98.75C252.777 98.75 252.658 98.7898 252.555 98.8693C252.453 98.947 252.374 99.0653 252.317 99.2244C252.26 99.3816 252.232 99.5795 252.232 99.8182C252.232 100.057 252.26 100.256 252.317 100.415C252.374 100.572 252.453 100.69 252.555 100.77C252.658 100.848 252.777 100.886 252.913 100.886C253.029 100.886 253.131 100.86 253.22 100.807C253.309 100.752 253.381 100.672 253.436 100.568C253.493 100.462 253.527 100.333 253.538 100.182H254.993C254.987 100.566 254.899 100.902 254.729 101.188C254.558 101.472 254.317 101.691 254.004 101.847C253.694 102.002 253.322 102.08 252.891 102.08ZM258.504 99.0909V100.273H255.776V99.0909H258.504ZM263.505 97.6364V101.023H264.255V103.398H262.744V102H259.437V97.6364H260.914V100.83H262.05V97.6364H263.505ZM266.856 102.08C266.39 102.08 265.988 101.991 265.651 101.812C265.316 101.633 265.058 101.375 264.876 101.04C264.696 100.703 264.606 100.299 264.606 99.8295C264.606 99.3788 264.697 98.9848 264.879 98.6477C265.06 98.3106 265.317 98.0483 265.648 97.8608C265.98 97.6733 266.371 97.5795 266.822 97.5795C267.151 97.5795 267.45 97.6307 267.717 97.733C267.984 97.8352 268.212 97.9839 268.401 98.179C268.591 98.3722 268.737 98.607 268.839 98.8835C268.941 99.16 268.992 99.4716 268.992 99.8182V100.182H265.094V99.3182H267.549C267.547 99.1932 267.515 99.0833 267.452 98.9886C267.392 98.892 267.309 98.8172 267.205 98.7642C267.103 98.7093 266.987 98.6818 266.856 98.6818C266.729 98.6818 266.612 98.7093 266.506 98.7642C266.4 98.8172 266.315 98.8911 266.251 98.9858C266.188 99.0805 266.155 99.1913 266.151 99.3182V100.25C266.151 100.39 266.181 100.515 266.239 100.625C266.298 100.735 266.382 100.821 266.492 100.884C266.602 100.946 266.735 100.977 266.89 100.977C266.998 100.977 267.096 100.962 267.185 100.932C267.276 100.902 267.354 100.858 267.418 100.801C267.483 100.742 267.53 100.672 267.56 100.591H268.992C268.943 100.894 268.826 101.157 268.643 101.381C268.459 101.602 268.216 101.775 267.913 101.898C267.612 102.019 267.259 102.08 266.856 102.08ZM272.746 99.2159V100.386H270.553V99.2159H272.746ZM271.109 97.6364V102H269.632V97.6364H271.109ZM273.666 97.6364V102H272.2V97.6364H273.666ZM274.08 98.8068V97.6364H278.308V98.8068H276.921V102H275.444V98.8068H274.08ZM278.89 103.636V97.6364H280.447V98.3977H280.481C280.538 98.25 280.621 98.1146 280.731 97.9915C280.841 97.8665 280.977 97.767 281.14 97.6932C281.303 97.6174 281.492 97.5795 281.708 97.5795C281.996 97.5795 282.27 97.6562 282.529 97.8097C282.79 97.9631 283.003 98.2045 283.165 98.5341C283.33 98.8636 283.413 99.2917 283.413 99.8182C283.413 100.322 283.334 100.74 283.177 101.071C283.022 101.402 282.813 101.65 282.552 101.812C282.292 101.975 282.007 102.057 281.697 102.057C281.492 102.057 281.309 102.024 281.148 101.957C280.989 101.889 280.853 101.797 280.739 101.682C280.628 101.564 280.541 101.432 280.481 101.284H280.458V103.636H278.89ZM280.424 99.8182C280.424 100.03 280.451 100.214 280.506 100.369C280.563 100.523 280.643 100.642 280.745 100.727C280.849 100.811 280.973 100.852 281.117 100.852C281.261 100.852 281.383 100.812 281.484 100.73C281.586 100.647 281.664 100.528 281.717 100.375C281.772 100.22 281.799 100.034 281.799 99.8182C281.799 99.6023 281.772 99.4176 281.717 99.2642C281.664 99.1089 281.586 98.9905 281.484 98.9091C281.383 98.8258 281.261 98.7841 281.117 98.7841C280.973 98.7841 280.849 98.8258 280.745 98.9091C280.643 98.9905 280.563 99.1089 280.506 99.2642C280.451 99.4176 280.424 99.6023 280.424 99.8182Z" fill="black"/>
<path d="M252.241 109V108.29L253.598 107.168C253.688 107.093 253.765 107.023 253.829 106.958C253.894 106.892 253.944 106.824 253.978 106.754C254.013 106.684 254.031 106.607 254.031 106.521C254.031 106.428 254.011 106.348 253.971 106.282C253.932 106.215 253.877 106.164 253.808 106.129C253.738 106.092 253.657 106.074 253.566 106.074C253.475 106.074 253.394 106.092 253.325 106.129C253.256 106.166 253.203 106.219 253.165 106.29C253.127 106.362 253.108 106.448 253.108 106.55H252.17C252.17 106.294 252.228 106.074 252.343 105.889C252.458 105.705 252.62 105.562 252.829 105.463C253.039 105.364 253.284 105.314 253.566 105.314C253.857 105.314 254.109 105.361 254.322 105.454C254.537 105.547 254.702 105.677 254.818 105.845C254.935 106.013 254.994 106.21 254.994 106.436C254.994 106.576 254.965 106.715 254.907 106.853C254.849 106.991 254.744 107.143 254.594 107.31C254.444 107.477 254.23 107.675 253.953 107.906L253.612 108.19V108.212H255.033V109H252.241Z" fill="black"/>
<path d="M100.697 24.0497C100.418 24.0497 100.17 24.0006 99.9535 23.9023C99.738 23.8029 99.5682 23.6662 99.4439 23.4922C99.3208 23.3182 99.258 23.1181 99.2557 22.892L100.214 22.892C100.218 23.0175 100.267 23.1175 100.36 23.1921C100.455 23.2667 100.567 23.304 100.697 23.304C100.798 23.304 100.887 23.2827 100.964 23.2401C101.041 23.1963 101.101 23.1347 101.145 23.0554C101.189 22.9761 101.21 22.8838 101.209 22.7784C101.21 22.6719 101.189 22.5795 101.145 22.5014C101.101 22.4221 101.041 22.3612 100.964 22.3185C100.887 22.2747 100.798 22.2528 100.697 22.2528C100.593 22.2528 100.497 22.2783 100.408 22.3292C100.32 22.3789 100.256 22.4482 100.214 22.5369L99.348 22.3665L99.4901 20.3636L101.933 20.3636L101.933 21.152L100.3 21.152L100.229 21.9545L100.25 21.9545C100.307 21.8445 100.405 21.7533 100.545 21.6811C100.684 21.6077 100.847 21.571 101.031 21.571C101.248 21.571 101.441 21.6213 101.61 21.7219C101.781 21.8226 101.915 21.9616 102.013 22.1392C102.113 22.3156 102.162 22.5192 102.161 22.75C102.162 23.0033 102.101 23.2282 101.979 23.4247C101.859 23.62 101.689 23.7733 101.47 23.8846C101.251 23.9947 100.993 24.0497 100.697 24.0497Z" fill="black"/>
<path d="M81.5682 73.206H82.3352L84.6364 74.669V75.3651H83.6136V74.9673L82.3636 74.179H82.3352V76.3381H81.5682V73.206ZM81 74.9744H81.8026L82.1364 74.9957H84.6364V75.919H81V74.9744Z" fill="black"/>
<path d="M116.95 74.6619C116.95 74.3755 116.999 74.121 117.098 73.8984C117.197 73.6771 117.334 73.5031 117.508 73.3764C117.682 73.2498 117.882 73.1858 118.108 73.1847V74.179C118.038 74.1802 117.975 74.2015 117.92 74.2429C117.865 74.2855 117.823 74.3435 117.792 74.4169C117.761 74.4903 117.746 74.5743 117.746 74.669C117.746 74.7602 117.762 74.8407 117.794 74.9105C117.827 74.9804 117.872 75.0348 117.93 75.0739C117.988 75.1129 118.055 75.1319 118.129 75.1307C118.203 75.1319 118.268 75.1094 118.325 75.0632C118.381 75.0182 118.426 74.9549 118.458 74.8732C118.49 74.7915 118.506 74.6974 118.506 74.5909V74.2216H119.188V74.5909C119.188 74.6892 119.203 74.7756 119.235 74.8501C119.267 74.9259 119.312 74.9845 119.369 75.0259C119.425 75.0685 119.491 75.0893 119.564 75.0881C119.635 75.0893 119.698 75.0721 119.752 75.0366C119.807 75.0011 119.849 74.9513 119.88 74.8874C119.911 74.8247 119.926 74.7519 119.926 74.669C119.926 74.5791 119.91 74.4986 119.878 74.4276C119.846 74.3577 119.802 74.3027 119.745 74.2624C119.688 74.2222 119.623 74.2015 119.55 74.2003V73.2557C119.772 73.2569 119.969 73.3178 120.139 73.4386C120.31 73.5605 120.443 73.7274 120.54 73.9393C120.638 74.1512 120.686 74.3944 120.686 74.669C120.686 74.9377 120.641 75.1751 120.549 75.381C120.458 75.5882 120.333 75.7498 120.173 75.8658C120.014 75.983 119.833 76.041 119.628 76.0398C119.424 76.0421 119.257 75.9723 119.127 75.8303C118.997 75.6894 118.92 75.5107 118.896 75.294H118.868C118.836 75.5876 118.746 75.8084 118.598 75.9563C118.451 76.1043 118.267 76.1771 118.044 76.1747C117.831 76.1759 117.642 76.112 117.478 75.983C117.313 75.8551 117.184 75.677 117.091 75.4485C116.997 75.2212 116.95 74.959 116.95 74.6619Z" fill="black"/>
<path d="M100.761 129.05C100.549 129.05 100.348 129.017 100.158 128.95C99.9683 128.883 99.8002 128.777 99.6534 128.632C99.5066 128.488 99.3912 128.3 99.3072 128.068C99.2243 127.836 99.1835 127.555 99.1847 127.224C99.1858 126.93 99.2237 126.665 99.2983 126.429C99.3741 126.193 99.4812 125.993 99.6197 125.827C99.7594 125.661 99.9263 125.535 100.12 125.447C100.315 125.358 100.531 125.314 100.768 125.314C101.036 125.314 101.272 125.365 101.475 125.468C101.679 125.571 101.841 125.709 101.962 125.882C102.084 126.054 102.155 126.243 102.175 126.45L101.202 126.45C101.179 126.347 101.127 126.272 101.045 126.225C100.965 126.176 100.873 126.152 100.768 126.152C100.561 126.152 100.409 126.242 100.312 126.422C100.216 126.602 100.167 126.839 100.165 127.132L100.186 127.132C100.232 127.021 100.302 126.926 100.396 126.846C100.489 126.767 100.598 126.706 100.722 126.663C100.847 126.621 100.978 126.599 101.116 126.599C101.337 126.599 101.529 126.649 101.694 126.749C101.859 126.848 101.988 126.984 102.081 127.157C102.173 127.33 102.219 127.527 102.217 127.75C102.219 128.01 102.157 128.238 102.033 128.434C101.91 128.629 101.739 128.78 101.52 128.888C101.301 128.996 101.048 129.05 100.761 129.05ZM100.754 128.304C100.853 128.304 100.94 128.281 101.015 128.237C101.092 128.192 101.152 128.13 101.195 128.052C101.238 127.974 101.26 127.885 101.259 127.786C101.26 127.685 101.238 127.596 101.195 127.519C101.152 127.441 101.092 127.379 101.015 127.335C100.94 127.29 100.853 127.267 100.754 127.267C100.682 127.267 100.615 127.28 100.554 127.306C100.493 127.331 100.441 127.367 100.396 127.414C100.351 127.461 100.315 127.516 100.289 127.58C100.264 127.642 100.251 127.711 100.25 127.786C100.251 127.885 100.274 127.974 100.317 128.052C100.361 128.13 100.421 128.192 100.497 128.237C100.573 128.281 100.658 128.304 100.754 128.304Z" fill="black"/>
<path d="M53.4048 24L54.8324 21.1733L54.8324 21.152L53.1563 21.152L53.1563 20.3636L55.8551 20.3636L55.8551 21.152L54.4205 24L53.4048 24Z" fill="black"/>
<path d="M38.7259 24.0497C38.4323 24.0497 38.1701 24.0041 37.9393 23.913C37.7096 23.8219 37.5285 23.6982 37.396 23.5419C37.2646 23.3857 37.1989 23.2093 37.1989 23.0128C37.1989 22.8625 37.2362 22.7251 37.3107 22.6009C37.3865 22.4766 37.4883 22.3736 37.6161 22.2919C37.744 22.209 37.8866 22.1558 38.044 22.1321L38.044 22.1037C37.8369 22.0682 37.6664 21.9764 37.5327 21.8285C37.4001 21.6793 37.3338 21.5036 37.3338 21.3011C37.3338 21.1106 37.3942 20.9413 37.5149 20.7933C37.6357 20.6442 37.8008 20.527 38.0103 20.4418C38.2198 20.3565 38.4583 20.3139 38.7259 20.3139C38.9934 20.3139 39.2319 20.3571 39.4414 20.4435C39.6509 20.5288 39.8161 20.646 39.9368 20.7951C40.0575 20.9431 40.1179 21.1117 40.1179 21.3011C40.1179 21.5047 40.0504 21.6805 39.9155 21.8285C39.7805 21.9764 39.6113 22.0682 39.4077 22.1037L39.4077 22.1321C39.5639 22.1558 39.706 22.209 39.8338 22.2919C39.9616 22.3736 40.0634 22.4766 40.1392 22.6009C40.215 22.7251 40.2528 22.8625 40.2528 23.0128C40.2528 23.2093 40.1866 23.3857 40.054 23.5419C39.9226 23.6982 39.7415 23.8219 39.5107 23.913C39.281 24.0041 39.0194 24.0497 38.7259 24.0497ZM38.7259 23.3679C38.8194 23.3679 38.9022 23.349 38.9744 23.3111C39.0466 23.2732 39.1035 23.2211 39.1449 23.1548C39.1875 23.0874 39.2088 23.0116 39.2088 22.9276C39.2088 22.8435 39.1875 22.7689 39.1449 22.7038C39.1035 22.6387 39.0466 22.5878 38.9744 22.5511C38.9022 22.5133 38.8194 22.4943 38.7259 22.4943C38.6335 22.4943 38.5507 22.5133 38.4773 22.5511C38.4051 22.5878 38.3477 22.6387 38.305 22.7038C38.2636 22.7689 38.2429 22.8435 38.2429 22.9276C38.2429 23.0116 38.2636 23.0868 38.305 23.1531C38.3477 23.2193 38.4051 23.272 38.4773 23.3111C38.5507 23.349 38.6335 23.3679 38.7259 23.3679ZM38.7259 21.8125C38.8087 21.8125 38.8821 21.7953 38.946 21.761C39.0099 21.7267 39.0603 21.6793 39.0969 21.619C39.1336 21.5586 39.152 21.4905 39.152 21.4148C39.152 21.339 39.1336 21.2721 39.0969 21.2141C39.0603 21.1549 39.0099 21.1088 38.946 21.0756C38.8821 21.0413 38.8087 21.0241 38.7259 21.0241C38.6442 21.0241 38.5708 21.0413 38.5057 21.0756C38.4418 21.1088 38.3915 21.1549 38.3548 21.2141C38.3181 21.2721 38.2997 21.339 38.2997 21.4148C38.2997 21.4905 38.3181 21.5586 38.3548 21.619C38.3915 21.6781 38.4418 21.7255 38.5057 21.761C38.5708 21.7953 38.6442 21.8125 38.7259 21.8125Z" fill="black"/>
<path d="M91.0909 9.69886V8.39205H91.2955C91.3636 8.35038 91.4252 8.29167 91.4801 8.21591C91.536 8.14015 91.5833 8.03172 91.6222 7.89062C91.6619 7.74953 91.6913 7.56061 91.7102 7.32386L91.8068 6.09091H93.8636V8.39205H94.1705V9.69886H93.4091V9H91.8523V9.69886H91.0909ZM92.1989 8.39205H93.1023V6.72727H92.517L92.4716 7.32386C92.4583 7.50189 92.438 7.65767 92.4105 7.79119C92.384 7.92377 92.3523 8.0393 92.3153 8.13778C92.2794 8.23532 92.2405 8.32008 92.1989 8.39205ZM94.3011 9L94.983 7.84659L94.3011 6.81818H95.1875L95.6477 7.61932H95.6818V6.81818H96.4659V7.61932H96.5L96.9602 6.81818H97.8466L97.1648 7.84659L97.8466 9H96.9375L96.4943 8.20455H96.4659V9H95.6818V8.20455H95.6534L95.2102 9H94.3011ZM98.6896 9.03409C98.5504 9.03409 98.4273 9.01136 98.3203 8.96591C98.2143 8.91951 98.1309 8.84943 98.0703 8.75568C98.0097 8.66193 97.9794 8.54261 97.9794 8.39773C97.9794 8.27841 97.9998 8.17661 98.0405 8.09233C98.0812 8.0071 98.138 7.9375 98.2109 7.88352C98.2839 7.82955 98.3686 7.78835 98.4652 7.75994C98.5627 7.73153 98.6679 7.71307 98.7805 7.70455C98.9027 7.69508 99.0007 7.68371 99.0746 7.67045C99.1494 7.65625 99.2034 7.63684 99.2365 7.61222C99.2696 7.58665 99.2862 7.55303 99.2862 7.51136V7.50568C99.2862 7.44886 99.2644 7.4053 99.2209 7.375C99.1773 7.3447 99.1214 7.32955 99.0533 7.32955C98.9785 7.32955 98.9174 7.34612 98.87 7.37926C98.8236 7.41146 98.7957 7.46117 98.7862 7.52841H98.0646C98.0741 7.39583 98.1162 7.27367 98.1911 7.16193C98.2668 7.04924 98.3771 6.95928 98.522 6.89205C98.6669 6.82386 98.8478 6.78977 99.0646 6.78977C99.2209 6.78977 99.361 6.80824 99.4851 6.84517C99.6091 6.88116 99.7147 6.93182 99.8018 6.99716C99.889 7.06155 99.9553 7.13731 100.001 7.22443C100.047 7.31061 100.07 7.40436 100.07 7.50568V9H99.3374V8.69318H99.3203C99.2768 8.77462 99.2237 8.84044 99.1612 8.89062C99.0997 8.94081 99.0291 8.97727 98.9496 9C98.871 9.02273 98.7843 9.03409 98.6896 9.03409ZM98.9453 8.53977C99.005 8.53977 99.0608 8.52746 99.1129 8.50284C99.166 8.47822 99.209 8.44271 99.2422 8.39631C99.2753 8.34991 99.2919 8.29356 99.2919 8.22727V8.04545C99.2711 8.05398 99.2488 8.06203 99.2251 8.0696C99.2024 8.07718 99.1778 8.08428 99.1513 8.09091C99.1257 8.09754 99.0982 8.10369 99.0689 8.10938C99.0405 8.11506 99.0107 8.12027 98.9794 8.125C98.9188 8.13447 98.8691 8.15009 98.8303 8.17188C98.7924 8.19271 98.764 8.21875 98.745 8.25C98.727 8.2803 98.718 8.31439 98.718 8.35227C98.718 8.41288 98.7393 8.45928 98.782 8.49148C98.8246 8.52367 98.879 8.53977 98.9453 8.53977ZM100.445 9V6.81818H101.229V7.59659H101.365L101.831 6.81818H102.729L102.03 7.92045L102.735 9H101.826L101.405 8.32386H101.229V9H100.445ZM103.453 9.81818C103.364 9.81818 103.278 9.81108 103.196 9.79688C103.115 9.78362 103.043 9.76515 102.982 9.74148L103.152 9.18466C103.217 9.20739 103.275 9.22206 103.328 9.22869C103.382 9.23532 103.428 9.23153 103.466 9.21733C103.505 9.20313 103.533 9.17614 103.55 9.13636L103.567 9.09659L102.8 6.81818H103.618L103.971 8.32955H103.993L104.351 6.81818H105.175L104.38 9.18182C104.34 9.30208 104.282 9.41004 104.206 9.50568C104.132 9.60227 104.033 9.6785 103.911 9.73438C103.789 9.79025 103.636 9.81818 103.453 9.81818ZM105.301 8.34091H106.04C106.04 8.39583 106.064 8.44081 106.111 8.47585C106.159 8.51089 106.221 8.52841 106.296 8.52841C106.371 8.52841 106.432 8.509 106.479 8.47017C106.527 8.4304 106.551 8.37973 106.551 8.31818C106.551 8.27936 106.542 8.24527 106.522 8.21591C106.502 8.18561 106.474 8.16193 106.439 8.14489C106.404 8.12784 106.364 8.11932 106.319 8.11932H106.046V7.65909H106.319C106.386 7.65909 106.44 7.64299 106.482 7.6108C106.525 7.5786 106.546 7.53788 106.546 7.48864C106.546 7.43182 106.525 7.38542 106.483 7.34943C106.442 7.31345 106.389 7.29545 106.324 7.29545C106.26 7.29545 106.207 7.31013 106.165 7.33949C106.123 7.36884 106.103 7.4072 106.103 7.45455H105.364C105.364 7.31439 105.406 7.19508 105.489 7.09659C105.572 6.99716 105.684 6.9214 105.824 6.86932C105.964 6.81629 106.12 6.78977 106.29 6.78977C106.485 6.78977 106.653 6.81345 106.793 6.8608C106.933 6.90814 107.041 6.97775 107.115 7.0696C107.19 7.16146 107.228 7.27462 107.228 7.40909C107.228 7.51989 107.187 7.61506 107.107 7.6946C107.026 7.7732 106.908 7.82955 106.75 7.86364V7.88636C106.844 7.8911 106.931 7.91335 107.012 7.95313C107.093 7.9929 107.159 8.04972 107.209 8.12358C107.259 8.19744 107.284 8.28883 107.284 8.39773C107.284 8.53409 107.242 8.65009 107.157 8.74574C107.072 8.84138 106.956 8.9143 106.807 8.96449C106.658 9.01468 106.488 9.03977 106.296 9.03977C106.108 9.03977 105.941 9.01468 105.793 8.96449C105.645 8.91335 105.528 8.83617 105.441 8.73295C105.354 8.62879 105.307 8.49811 105.301 8.34091ZM108.328 8L108.936 6.81818H109.675V9H108.936V7.8125L108.328 9H107.589V6.81818H108.328V8Z" fill="black"/>
<path d="M91.0909 143.699V142.392H91.2955C91.3636 142.35 91.4252 142.292 91.4801 142.216C91.536 142.14 91.5833 142.032 91.6222 141.891C91.6619 141.75 91.6913 141.561 91.7102 141.324L91.8068 140.091H93.8636V142.392H94.1705V143.699H93.4091V143H91.8523V143.699H91.0909ZM92.1989 142.392H93.1023V140.727H92.517L92.4716 141.324C92.4583 141.502 92.438 141.658 92.4105 141.791C92.384 141.924 92.3523 142.039 92.3153 142.138C92.2794 142.235 92.2405 142.32 92.1989 142.392ZM94.3011 143L94.983 141.847L94.3011 140.818H95.1875L95.6477 141.619H95.6818V140.818H96.4659V141.619H96.5L96.9602 140.818H97.8466L97.1648 141.847L97.8466 143H96.9375L96.4943 142.205H96.4659V143H95.6818V142.205H95.6534L95.2102 143H94.3011ZM98.6896 143.034C98.5504 143.034 98.4273 143.011 98.3203 142.966C98.2143 142.92 98.1309 142.849 98.0703 142.756C98.0097 142.662 97.9794 142.543 97.9794 142.398C97.9794 142.278 97.9998 142.177 98.0405 142.092C98.0812 142.007 98.138 141.938 98.2109 141.884C98.2839 141.83 98.3686 141.788 98.4652 141.76C98.5627 141.732 98.6679 141.713 98.7805 141.705C98.9027 141.695 99.0007 141.684 99.0746 141.67C99.1494 141.656 99.2034 141.637 99.2365 141.612C99.2696 141.587 99.2862 141.553 99.2862 141.511V141.506C99.2862 141.449 99.2644 141.405 99.2209 141.375C99.1773 141.345 99.1214 141.33 99.0533 141.33C98.9785 141.33 98.9174 141.346 98.87 141.379C98.8236 141.411 98.7957 141.461 98.7862 141.528H98.0646C98.0741 141.396 98.1162 141.274 98.1911 141.162C98.2668 141.049 98.3771 140.959 98.522 140.892C98.6669 140.824 98.8478 140.79 99.0646 140.79C99.2209 140.79 99.361 140.808 99.4851 140.845C99.6091 140.881 99.7147 140.932 99.8018 140.997C99.889 141.062 99.9553 141.137 100.001 141.224C100.047 141.311 100.07 141.404 100.07 141.506V143H99.3374V142.693H99.3203C99.2768 142.775 99.2237 142.84 99.1612 142.891C99.0997 142.941 99.0291 142.977 98.9496 143C98.871 143.023 98.7843 143.034 98.6896 143.034ZM98.9453 142.54C99.005 142.54 99.0608 142.527 99.1129 142.503C99.166 142.478 99.209 142.443 99.2422 142.396C99.2753 142.35 99.2919 142.294 99.2919 142.227V142.045C99.2711 142.054 99.2488 142.062 99.2251 142.07C99.2024 142.077 99.1778 142.084 99.1513 142.091C99.1257 142.098 99.0982 142.104 99.0689 142.109C99.0405 142.115 99.0107 142.12 98.9794 142.125C98.9188 142.134 98.8691 142.15 98.8303 142.172C98.7924 142.193 98.764 142.219 98.745 142.25C98.727 142.28 98.718 142.314 98.718 142.352C98.718 142.413 98.7393 142.459 98.782 142.491C98.8246 142.524 98.879 142.54 98.9453 142.54ZM100.445 143V140.818H101.229V141.597H101.365L101.831 140.818H102.729L102.03 141.92L102.735 143H101.826L101.405 142.324H101.229V143H100.445ZM103.453 143.818C103.364 143.818 103.278 143.811 103.196 143.797C103.115 143.784 103.043 143.765 102.982 143.741L103.152 143.185C103.217 143.207 103.275 143.222 103.328 143.229C103.382 143.235 103.428 143.232 103.466 143.217C103.505 143.203 103.533 143.176 103.55 143.136L103.567 143.097L102.8 140.818H103.618L103.971 142.33H103.993L104.351 140.818H105.175L104.38 143.182C104.34 143.302 104.282 143.41 104.206 143.506C104.132 143.602 104.033 143.679 103.911 143.734C103.789 143.79 103.636 143.818 103.453 143.818ZM105.301 142.341H106.04C106.04 142.396 106.064 142.441 106.111 142.476C106.159 142.511 106.221 142.528 106.296 142.528C106.371 142.528 106.432 142.509 106.479 142.47C106.527 142.43 106.551 142.38 106.551 142.318C106.551 142.279 106.542 142.245 106.522 142.216C106.502 142.186 106.474 142.162 106.439 142.145C106.404 142.128 106.364 142.119 106.319 142.119H106.046V141.659H106.319C106.386 141.659 106.44 141.643 106.482 141.611C106.525 141.579 106.546 141.538 106.546 141.489C106.546 141.432 106.525 141.385 106.483 141.349C106.442 141.313 106.389 141.295 106.324 141.295C106.26 141.295 106.207 141.31 106.165 141.339C106.123 141.369 106.103 141.407 106.103 141.455H105.364C105.364 141.314 105.406 141.195 105.489 141.097C105.572 140.997 105.684 140.921 105.824 140.869C105.964 140.816 106.12 140.79 106.29 140.79C106.485 140.79 106.653 140.813 106.793 140.861C106.933 140.908 107.041 140.978 107.115 141.07C107.19 141.161 107.228 141.275 107.228 141.409C107.228 141.52 107.187 141.615 107.107 141.695C107.026 141.773 106.908 141.83 106.75 141.864V141.886C106.844 141.891 106.931 141.913 107.012 141.953C107.093 141.993 107.159 142.05 107.209 142.124C107.259 142.197 107.284 142.289 107.284 142.398C107.284 142.534 107.242 142.65 107.157 142.746C107.072 142.841 106.956 142.914 106.807 142.964C106.658 143.015 106.488 143.04 106.296 143.04C106.108 143.04 105.941 143.015 105.793 142.964C105.645 142.913 105.528 142.836 105.441 142.733C105.354 142.629 105.307 142.498 105.301 142.341ZM108.328 142L108.936 140.818H109.675V143H108.936V141.812L108.328 143H107.589V140.818H108.328V142Z" fill="black"/>
<path d="M41.9034 6.18182H41.1023C41.0966 6.11553 41.0814 6.0554 41.0568 6.00142C41.0331 5.94744 41 5.90104 40.9574 5.86222C40.9157 5.82244 40.8651 5.79214 40.8054 5.77131C40.7457 5.74953 40.678 5.73864 40.6023 5.73864C40.4697 5.73864 40.3575 5.77083 40.2656 5.83523C40.1747 5.89962 40.1056 5.99195 40.0582 6.11222C40.0118 6.23248 39.9886 6.37689 39.9886 6.54545C39.9886 6.72348 40.0123 6.87263 40.0597 6.9929C40.108 7.11222 40.1776 7.20218 40.2685 7.26278C40.3594 7.32244 40.4688 7.35227 40.5966 7.35227C40.6695 7.35227 40.7348 7.34328 40.7926 7.32528C40.8504 7.30634 40.9006 7.27936 40.9432 7.24432C40.9858 7.20928 41.0204 7.16714 41.0469 7.1179C41.0743 7.06771 41.0928 7.01136 41.1023 6.94886L41.9034 6.95455C41.8939 7.07765 41.8594 7.20312 41.7997 7.33097C41.7401 7.45786 41.6553 7.57528 41.5455 7.68324C41.4366 7.79025 41.3016 7.87642 41.1406 7.94176C40.9796 8.0071 40.7926 8.03977 40.5795 8.03977C40.3125 8.03977 40.0729 7.98248 39.8608 7.8679C39.6496 7.75331 39.4825 7.58475 39.3594 7.36222C39.2372 7.13968 39.1761 6.86742 39.1761 6.54545C39.1761 6.22159 39.2386 5.94886 39.3636 5.72727C39.4886 5.50473 39.6572 5.33665 39.8693 5.22301C40.0814 5.10843 40.3182 5.05114 40.5795 5.05114C40.7633 5.05114 40.9323 5.07623 41.0866 5.12642C41.241 5.17661 41.3764 5.25 41.4929 5.34659C41.6094 5.44223 41.7031 5.56013 41.7741 5.70028C41.8452 5.84044 41.8883 6.00095 41.9034 6.18182ZM43.3242 8.03977C43.0875 8.03977 42.8848 7.9929 42.7163 7.89915C42.5477 7.80445 42.4184 7.67282 42.3285 7.50426C42.2385 7.33475 42.1935 7.13826 42.1935 6.91477C42.1935 6.69129 42.2385 6.49527 42.3285 6.3267C42.4184 6.1572 42.5477 6.02557 42.7163 5.93182C42.8848 5.83712 43.0875 5.78977 43.3242 5.78977C43.561 5.78977 43.7636 5.83712 43.9322 5.93182C44.1007 6.02557 44.23 6.1572 44.32 6.3267C44.4099 6.49527 44.4549 6.69129 44.4549 6.91477C44.4549 7.13826 44.4099 7.33475 44.32 7.50426C44.23 7.67282 44.1007 7.80445 43.9322 7.89915C43.7636 7.9929 43.561 8.03977 43.3242 8.03977ZM43.3299 7.46023C43.3962 7.46023 43.4535 7.43797 43.5018 7.39347C43.5501 7.34896 43.5875 7.28551 43.614 7.20312C43.6405 7.12074 43.6538 7.02273 43.6538 6.90909C43.6538 6.79451 43.6405 6.6965 43.614 6.61506C43.5875 6.53267 43.5501 6.46922 43.5018 6.42472C43.4535 6.38021 43.3962 6.35795 43.3299 6.35795C43.2598 6.35795 43.1997 6.38021 43.1495 6.42472C43.0993 6.46922 43.061 6.53267 43.0344 6.61506C43.0079 6.6965 42.9947 6.79451 42.9947 6.90909C42.9947 7.02273 43.0079 7.12074 43.0344 7.20312C43.061 7.28551 43.0993 7.34896 43.1495 7.39347C43.1997 7.43797 43.2598 7.46023 43.3299 7.46023ZM44.6879 8L44.6822 7.40909H44.7504C44.793 7.40909 44.8304 7.39678 44.8626 7.37216C44.8957 7.34754 44.9237 7.30966 44.9464 7.25852C44.9701 7.20739 44.9885 7.14252 45.0018 7.06392C45.016 6.98532 45.025 6.89205 45.0288 6.78409L45.0629 5.81818H46.8583V8H46.1197V6.40341H45.756L45.7219 6.99432C45.7125 7.17992 45.686 7.33712 45.6424 7.46591C45.5998 7.5947 45.543 7.69839 45.4719 7.77699C45.4009 7.85464 45.3185 7.91146 45.2248 7.94744C45.131 7.98248 45.0278 8 44.9151 8H44.6879ZM48.4897 8V6.40341H48.1942C48.0958 6.40341 48.0233 6.42614 47.9769 6.47159C47.9305 6.51705 47.9083 6.5625 47.9102 6.60795C47.9083 6.65625 47.9319 6.7017 47.9812 6.74432C48.0304 6.78598 48.1071 6.80682 48.2113 6.80682H48.7681V7.27841H48.2113C47.9982 7.27841 47.8136 7.24858 47.6573 7.18892C47.5011 7.12926 47.3808 7.04688 47.2965 6.94176C47.2122 6.83665 47.1706 6.71591 47.1715 6.57955C47.1706 6.43182 47.2113 6.30066 47.2937 6.18608C47.377 6.0715 47.4954 5.98153 47.6488 5.91619C47.8031 5.85085 47.985 5.81818 48.1942 5.81818H49.217V8H48.4897ZM47.1488 8L47.7454 6.82955H48.467L47.8704 8H47.1488ZM49.5934 8.81818V5.81818H50.3718V6.19886H50.3888C50.4173 6.125 50.4589 6.05729 50.5138 5.99574C50.5688 5.93324 50.637 5.88352 50.7184 5.84659C50.7998 5.80871 50.8945 5.78977 51.0025 5.78977C51.1464 5.78977 51.2833 5.82813 51.413 5.90483C51.5437 5.98153 51.6497 6.10227 51.7312 6.26705C51.8136 6.43182 51.8548 6.64583 51.8548 6.90909C51.8548 7.16098 51.8155 7.36979 51.7369 7.53551C51.6592 7.70123 51.555 7.82481 51.4244 7.90625C51.2946 7.98769 51.1521 8.02841 50.9968 8.02841C50.8945 8.02841 50.8031 8.01184 50.7227 7.97869C50.6431 7.9446 50.5749 7.89867 50.5181 7.84091C50.4622 7.7822 50.4192 7.71591 50.3888 7.64205H50.3775V8.81818H49.5934ZM50.3604 6.90909C50.3604 7.01515 50.3742 7.10701 50.4016 7.18466C50.43 7.26136 50.4698 7.32102 50.521 7.36364C50.573 7.4053 50.6351 7.42614 50.707 7.42614C50.779 7.42614 50.8401 7.40578 50.8903 7.36506C50.9414 7.32339 50.9802 7.2642 51.0067 7.1875C51.0342 7.10985 51.0479 7.01705 51.0479 6.90909C51.0479 6.80114 51.0342 6.70881 51.0067 6.6321C50.9802 6.55445 50.9414 6.49527 50.8903 6.45455C50.8401 6.41288 50.779 6.39205 50.707 6.39205C50.6351 6.39205 50.573 6.41288 50.521 6.45455C50.4698 6.49527 50.43 6.55445 50.4016 6.6321C50.3742 6.70881 50.3604 6.80114 50.3604 6.90909ZM52.9219 7L53.5298 5.81818H54.2685V8H53.5298V6.8125L52.9219 8H52.1832V5.81818H52.9219V7ZM55.4062 7L56.0142 5.81818H56.7528V8H56.0142V6.8125L55.4062 8H54.6676V5.81818H55.4062V7ZM55.9915 5.03409H56.4858C56.4848 5.21875 56.4143 5.36648 56.2741 5.47727C56.134 5.58712 55.9451 5.64205 55.7074 5.64205C55.4678 5.64205 55.2779 5.58712 55.1378 5.47727C54.9976 5.36648 54.928 5.21875 54.929 5.03409H55.4176C55.4167 5.09375 55.438 5.14867 55.4815 5.19886C55.526 5.24811 55.6013 5.27273 55.7074 5.27273C55.8087 5.27273 55.8812 5.24858 55.9247 5.20028C55.9683 5.15199 55.9905 5.09659 55.9915 5.03409Z" fill="black"/>
<path d="M41.9034 141.182H41.1023C41.0966 141.116 41.0814 141.055 41.0568 141.001C41.0331 140.947 41 140.901 40.9574 140.862C40.9157 140.822 40.8651 140.792 40.8054 140.771C40.7457 140.75 40.678 140.739 40.6023 140.739C40.4697 140.739 40.3575 140.771 40.2656 140.835C40.1747 140.9 40.1056 140.992 40.0582 141.112C40.0118 141.232 39.9886 141.377 39.9886 141.545C39.9886 141.723 40.0123 141.873 40.0597 141.993C40.108 142.112 40.1776 142.202 40.2685 142.263C40.3594 142.322 40.4688 142.352 40.5966 142.352C40.6695 142.352 40.7348 142.343 40.7926 142.325C40.8504 142.306 40.9006 142.279 40.9432 142.244C40.9858 142.209 41.0204 142.167 41.0469 142.118C41.0743 142.068 41.0928 142.011 41.1023 141.949L41.9034 141.955C41.8939 142.078 41.8594 142.203 41.7997 142.331C41.7401 142.458 41.6553 142.575 41.5455 142.683C41.4366 142.79 41.3016 142.876 41.1406 142.942C40.9796 143.007 40.7926 143.04 40.5795 143.04C40.3125 143.04 40.0729 142.982 39.8608 142.868C39.6496 142.753 39.4825 142.585 39.3594 142.362C39.2372 142.14 39.1761 141.867 39.1761 141.545C39.1761 141.222 39.2386 140.949 39.3636 140.727C39.4886 140.505 39.6572 140.337 39.8693 140.223C40.0814 140.108 40.3182 140.051 40.5795 140.051C40.7633 140.051 40.9323 140.076 41.0866 140.126C41.241 140.177 41.3764 140.25 41.4929 140.347C41.6094 140.442 41.7031 140.56 41.7741 140.7C41.8452 140.84 41.8883 141.001 41.9034 141.182ZM43.3242 143.04C43.0875 143.04 42.8848 142.993 42.7163 142.899C42.5477 142.804 42.4184 142.673 42.3285 142.504C42.2385 142.335 42.1935 142.138 42.1935 141.915C42.1935 141.691 42.2385 141.495 42.3285 141.327C42.4184 141.157 42.5477 141.026 42.7163 140.932C42.8848 140.837 43.0875 140.79 43.3242 140.79C43.561 140.79 43.7636 140.837 43.9322 140.932C44.1007 141.026 44.23 141.157 44.32 141.327C44.4099 141.495 44.4549 141.691 44.4549 141.915C44.4549 142.138 44.4099 142.335 44.32 142.504C44.23 142.673 44.1007 142.804 43.9322 142.899C43.7636 142.993 43.561 143.04 43.3242 143.04ZM43.3299 142.46C43.3962 142.46 43.4535 142.438 43.5018 142.393C43.5501 142.349 43.5875 142.286 43.614 142.203C43.6405 142.121 43.6538 142.023 43.6538 141.909C43.6538 141.795 43.6405 141.696 43.614 141.615C43.5875 141.533 43.5501 141.469 43.5018 141.425C43.4535 141.38 43.3962 141.358 43.3299 141.358C43.2598 141.358 43.1997 141.38 43.1495 141.425C43.0993 141.469 43.061 141.533 43.0344 141.615C43.0079 141.696 42.9947 141.795 42.9947 141.909C42.9947 142.023 43.0079 142.121 43.0344 142.203C43.061 142.286 43.0993 142.349 43.1495 142.393C43.1997 142.438 43.2598 142.46 43.3299 142.46ZM44.6879 143L44.6822 142.409H44.7504C44.793 142.409 44.8304 142.397 44.8626 142.372C44.8957 142.348 44.9237 142.31 44.9464 142.259C44.9701 142.207 44.9885 142.143 45.0018 142.064C45.016 141.985 45.025 141.892 45.0288 141.784L45.0629 140.818H46.8583V143H46.1197V141.403H45.756L45.7219 141.994C45.7125 142.18 45.686 142.337 45.6424 142.466C45.5998 142.595 45.543 142.698 45.4719 142.777C45.4009 142.855 45.3185 142.911 45.2248 142.947C45.131 142.982 45.0278 143 44.9151 143H44.6879ZM48.4897 143V141.403H48.1942C48.0958 141.403 48.0233 141.426 47.9769 141.472C47.9305 141.517 47.9083 141.562 47.9102 141.608C47.9083 141.656 47.9319 141.702 47.9812 141.744C48.0304 141.786 48.1071 141.807 48.2113 141.807H48.7681V142.278H48.2113C47.9982 142.278 47.8136 142.249 47.6573 142.189C47.5011 142.129 47.3808 142.047 47.2965 141.942C47.2122 141.837 47.1706 141.716 47.1715 141.58C47.1706 141.432 47.2113 141.301 47.2937 141.186C47.377 141.071 47.4954 140.982 47.6488 140.916C47.8031 140.851 47.985 140.818 48.1942 140.818H49.217V143H48.4897ZM47.1488 143L47.7454 141.83H48.467L47.8704 143H47.1488ZM49.5934 143.818V140.818H50.3718V141.199H50.3888C50.4173 141.125 50.4589 141.057 50.5138 140.996C50.5688 140.933 50.637 140.884 50.7184 140.847C50.7998 140.809 50.8945 140.79 51.0025 140.79C51.1464 140.79 51.2833 140.828 51.413 140.905C51.5437 140.982 51.6497 141.102 51.7312 141.267C51.8136 141.432 51.8548 141.646 51.8548 141.909C51.8548 142.161 51.8155 142.37 51.7369 142.536C51.6592 142.701 51.555 142.825 51.4244 142.906C51.2946 142.988 51.1521 143.028 50.9968 143.028C50.8945 143.028 50.8031 143.012 50.7227 142.979C50.6431 142.945 50.5749 142.899 50.5181 142.841C50.4622 142.782 50.4192 142.716 50.3888 142.642H50.3775V143.818H49.5934ZM50.3604 141.909C50.3604 142.015 50.3742 142.107 50.4016 142.185C50.43 142.261 50.4698 142.321 50.521 142.364C50.573 142.405 50.6351 142.426 50.707 142.426C50.779 142.426 50.8401 142.406 50.8903 142.365C50.9414 142.323 50.9802 142.264 51.0067 142.188C51.0342 142.11 51.0479 142.017 51.0479 141.909C51.0479 141.801 51.0342 141.709 51.0067 141.632C50.9802 141.554 50.9414 141.495 50.8903 141.455C50.8401 141.413 50.779 141.392 50.707 141.392C50.6351 141.392 50.573 141.413 50.521 141.455C50.4698 141.495 50.43 141.554 50.4016 141.632C50.3742 141.709 50.3604 141.801 50.3604 141.909ZM52.9219 142L53.5298 140.818H54.2685V143H53.5298V141.812L52.9219 143H52.1832V140.818H52.9219V142ZM55.4062 142L56.0142 140.818H56.7528V143H56.0142V141.812L55.4062 143H54.6676V140.818H55.4062V142ZM55.9915 140.034H56.4858C56.4848 140.219 56.4143 140.366 56.2741 140.477C56.134 140.587 55.9451 140.642 55.7074 140.642C55.4678 140.642 55.2779 140.587 55.1378 140.477C54.9976 140.366 54.928 140.219 54.929 140.034H55.4176C55.4167 140.094 55.438 140.149 55.4815 140.199C55.526 140.248 55.6013 140.273 55.7074 140.273C55.8087 140.273 55.8812 140.249 55.9247 140.2C55.9683 140.152 55.9905 140.097 55.9915 140.034Z" fill="black"/>
</svg>